<svg xmlns="http://www.w3.org/2000/svg" width="151" height="34" fill="#43426d"  xmlns:v="https://vecta.io/nano"><path d="M92.454 28.647c-5.27 0-8.846-3.322-8.846-9.322 0-5.729 3.231-9.322 8.094-9.322 4.643 0 7.278 3.186 7.278 8.542v2.034H87.717c.282 2.644 1.945 3.966 5.207 3.966a12.26 12.26 0 0 0 5.804-1.492v3.831c-1.167.983-3.736 1.763-6.274 1.763zm-4.768-10.881h7.341c-.031-2.441-1.129-4.068-3.576-4.068-2.325-.003-3.614 1.624-3.767 4.064l.003.003zM40.42 28.647c-5.051 0-8.784-4.034-8.784-9.322 0-5.424 3.733-9.322 8.784-9.322s8.815 3.895 8.815 9.319c0 5.291-3.749 9.325-8.815 9.325zm0-4.102a4.4 4.4 0 0 0 1.86-.37 4.7 4.7 0 0 0 1.575-1.131 5.14 5.14 0 0 0 1.036-1.71 5.45 5.45 0 0 0 .329-2.012c0-3.119-2.102-5.22-4.8-5.22s-4.737 2.102-4.737 5.22c0 3.051 2.07 5.224 4.737 5.224zm17.301 4.136c-2.949 0-5.302-1.254-5.302-5.797v-8.715h-2.51v-1.085l5.647-6.102h.91v3.356h5.553v3.83h-5.553v8.136c0 1.797.91 2.407 2.353 2.407a6.98 6.98 0 0 0 3.231-.814v3.661c-.938.614-2.381 1.122-4.329 1.122zm18.951-1.695c-1.098.949-2.604 1.661-4.768 1.661-3.576 0-7.341-2.61-7.341-8.881 0-6.813 4.643-9.763 9.286-9.763a14.06 14.06 0 0 1 2.572.237V4.983l4.047-.176v23.498h-3.796v-1.319zm-7.937-7.525c0 3.525 1.788 5.288 4.392 5.288a6.65 6.65 0 0 0 3.294-.949v-9.529a7.89 7.89 0 0 0-2.353-.373c-2.823 0-5.333 1.492-5.333 5.559v.003zm37.177-9.122v2.339c1.255-1.322 3.263-2.678 5.459-2.678.606-.006 1.206.133 1.757.407v4.644c-.954-.555-2.023-.836-3.106-.814-1.36.055-2.686.474-3.859 1.22v12.847h-4.046V10.339h3.795zm14.399 1.186c1.418-1 3.075-1.531 4.768-1.525 3.859 0 7.09 2.881 7.09 8.915 0 6.814-4.361 9.729-8.941 9.729-3.074 0-5.238-.847-6.964-1.525V4.983l4.047-.61v7.153zm7.679 7.661c0-3.627-1.913-5.186-4.141-5.186a7.7 7.7 0 0 0-3.544.915v9.39c.875.285 1.783.434 2.697.441 2.767 0 4.988-1.322 4.988-5.559zm11.842 9.224l.376-.848-7.434-17.22h4.517l4.768 12.37 4.455-12.373H151L141.426 34h-3.978l2.384-5.59zm0-.003l.376-.848-7.434-17.22h4.517l4.768 12.373 4.455-12.373H151L141.426 34h-3.978l2.384-5.593zM24.234 5.391v9.287h-7.375V5.322c-2.87 0-3.611-.159-5.173-.471C7.571 3.934 3.624 2.295 0 0c.505 2.781 1.874 5.293 3.88 7.119 1.3 1.224 2.758 2.236 4.329 3.003.309.17.547.461.665.813a1.59 1.59 0 0 1-.028 1.085 1.43 1.43 0 0 1-.706.772c-.317.151-.676.166-1.004.042-.617-.288-1.219-.612-1.804-.969a5.94 5.94 0 0 0 .54 3.461c.441.647 1.014 1.177 1.674 1.547s1.39.573 2.134.591c.35.043.672.231.897.524a1.56 1.56 0 0 1 .312 1.049c-.025.38-.185.735-.447.991a1.31 1.31 0 0 1-.957.381l-.144-.02a10.87 10.87 0 0 1-1.255-.254 7.09 7.09 0 0 0 1.729 2.4 7.36 7.36 0 0 0 2.764 1.356v4.746h4.266v-9.62h7.372v9.627h4.266V5.322l-4.251.069z"/></svg>