<svg width="422" height="31" viewBox="0 0 422 31" fill="none" xmlns="http://www.w3.org/2000/svg">
<g clip-path="url(#clip0)">
<g filter="url(#filter0_di)">
<path d="M103.129 8.68417C103.129 12.1723 99.1768 14.9999 99.1768 14.9999C99.1768 14.9999 95.2241 12.1723 95.2241 8.68417C95.2241 5.19607 96.9938 2.36841 99.1768 2.36841C101.36 2.36841 103.129 5.19607 103.129 8.68417Z" fill="#376FFF"/>
<path d="M103.129 8.68417C103.129 12.1723 99.1768 14.9999 99.1768 14.9999C99.1768 14.9999 95.2241 12.1723 95.2241 8.68417C95.2241 5.19607 96.9938 2.36841 99.1768 2.36841C101.36 2.36841 103.129 5.19607 103.129 8.68417Z" fill="url(#paint0_radial)"/>
</g>
<g filter="url(#filter1_i)">
<path d="M96.8045 0H101.548L102.689 3.42021C102.905 4.06782 102.423 4.73682 101.741 4.73682H96.6114C95.9287 4.73682 95.4467 4.06782 95.6629 3.42021L96.8045 0Z" fill="url(#paint1_linear)"/>
<path d="M96.8045 0H101.548L102.689 3.42021C102.905 4.06782 102.423 4.73682 101.741 4.73682H96.6114C95.9287 4.73682 95.4467 4.06782 95.6629 3.42021L96.8045 0Z" fill="url(#paint2_radial)"/>
</g>
<g filter="url(#filter2_di)">
<path d="M28.9054 8.6843C28.9054 12.1724 24.9527 15.0001 24.9527 15.0001C24.9527 15.0001 21 12.1724 21 8.6843C21 5.1962 22.7697 2.36853 24.9527 2.36853C27.1357 2.36853 28.9054 5.1962 28.9054 8.6843Z" fill="#FF0000"/>
<path d="M28.9054 8.6843C28.9054 12.1724 24.9527 15.0001 24.9527 15.0001C24.9527 15.0001 21 12.1724 21 8.6843C21 5.1962 22.7697 2.36853 24.9527 2.36853C27.1357 2.36853 28.9054 5.1962 28.9054 8.6843Z" fill="url(#paint3_radial)"/>
</g>
<g filter="url(#filter3_i)">
<path d="M22.5813 0H27.3245L28.4662 3.42021C28.6823 4.06782 28.2003 4.73682 27.5176 4.73682H22.3883C21.7055 4.73682 21.2235 4.06782 21.4397 3.42021L22.5813 0Z" fill="url(#paint4_linear)"/>
<path d="M22.5813 0H27.3245L28.4662 3.42021C28.6823 4.06782 28.2003 4.73682 27.5176 4.73682H22.3883C21.7055 4.73682 21.2235 4.06782 21.4397 3.42021L22.5813 0Z" fill="url(#paint5_radial)"/>
</g>
<g filter="url(#filter4_di)">
<path d="M214.463 8.6843C214.463 12.1724 210.511 15.0001 210.511 15.0001C210.511 15.0001 206.558 12.1724 206.558 8.6843C206.558 5.1962 208.328 2.36853 210.511 2.36853C212.694 2.36853 214.463 5.1962 214.463 8.6843Z" fill="#AD00FF"/>
<path d="M214.463 8.6843C214.463 12.1724 210.511 15.0001 210.511 15.0001C210.511 15.0001 206.558 12.1724 206.558 8.6843C206.558 5.1962 208.328 2.36853 210.511 2.36853C212.694 2.36853 214.463 5.1962 214.463 8.6843Z" fill="url(#paint6_radial)"/>
</g>
<g filter="url(#filter5_i)">
<path d="M208.138 0L212.881 0L214.023 3.42021C214.239 4.06782 213.757 4.73682 213.074 4.73682H207.945C207.262 4.73682 206.78 4.06782 206.997 3.42021L208.138 0Z" fill="url(#paint7_linear)"/>
<path d="M208.138 0L212.881 0L214.023 3.42021C214.239 4.06782 213.757 4.73682 213.074 4.73682H207.945C207.262 4.73682 206.78 4.06782 206.997 3.42021L208.138 0Z" fill="url(#paint8_radial)"/>
</g>
<g filter="url(#filter6_di)">
<path d="M66.0167 8.68417C66.0167 12.1723 62.064 14.9999 62.064 14.9999C62.064 14.9999 58.1113 12.1723 58.1113 8.68417C58.1113 5.19607 59.881 2.36841 62.064 2.36841C64.247 2.36841 66.0167 5.19607 66.0167 8.68417Z" fill="#FF378B"/>
<path d="M66.0167 8.68417C66.0167 12.1723 62.064 14.9999 62.064 14.9999C62.064 14.9999 58.1113 12.1723 58.1113 8.68417C58.1113 5.19607 59.881 2.36841 62.064 2.36841C64.247 2.36841 66.0167 5.19607 66.0167 8.68417Z" fill="url(#paint9_radial)"/>
</g>
<g filter="url(#filter7_i)">
<path d="M59.6926 0H64.4359L65.5775 3.42021C65.7936 4.06782 65.3117 4.73682 64.6289 4.73682H59.4996C58.8169 4.73682 58.3349 4.06782 58.551 3.42021L59.6926 0Z" fill="url(#paint10_linear)"/>
<path d="M59.6926 0H64.4359L65.5775 3.42021C65.7936 4.06782 65.3117 4.73682 64.6289 4.73682H59.4996C58.8169 4.73682 58.3349 4.06782 58.551 3.42021L59.6926 0Z" fill="url(#paint11_radial)"/>
</g>
<g filter="url(#filter8_di)">
<path d="M177.352 8.68417C177.352 12.1723 173.399 14.9999 173.399 14.9999C173.399 14.9999 169.447 12.1723 169.447 8.68417C169.447 5.19607 171.216 2.36841 173.399 2.36841C175.582 2.36841 177.352 5.19607 177.352 8.68417Z" fill="#FFD600"/>
<path d="M177.352 8.68417C177.352 12.1723 173.399 14.9999 173.399 14.9999C173.399 14.9999 169.447 12.1723 169.447 8.68417C169.447 5.19607 171.216 2.36841 173.399 2.36841C175.582 2.36841 177.352 5.19607 177.352 8.68417Z" fill="url(#paint12_radial)"/>
</g>
<g filter="url(#filter9_i)">
<path d="M171.027 0H175.77L176.912 3.42021C177.128 4.06782 176.646 4.73682 175.963 4.73682H170.834C170.151 4.73682 169.669 4.06782 169.886 3.42021L171.027 0Z" fill="url(#paint13_linear)"/>
<path d="M171.027 0H175.77L176.912 3.42021C177.128 4.06782 176.646 4.73682 175.963 4.73682H170.834C170.151 4.73682 169.669 4.06782 169.886 3.42021L171.027 0Z" fill="url(#paint14_radial)"/>
</g>
<g filter="url(#filter10_di)">
<path d="M140.241 8.68417C140.241 12.1723 136.288 14.9999 136.288 14.9999C136.288 14.9999 132.335 12.1723 132.335 8.68417C132.335 5.19607 134.105 2.36841 136.288 2.36841C138.471 2.36841 140.241 5.19607 140.241 8.68417Z" fill="#00FF66"/>
<path d="M140.241 8.68417C140.241 12.1723 136.288 14.9999 136.288 14.9999C136.288 14.9999 132.335 12.1723 132.335 8.68417C132.335 5.19607 134.105 2.36841 136.288 2.36841C138.471 2.36841 140.241 5.19607 140.241 8.68417Z" fill="url(#paint15_radial)"/>
</g>
<g filter="url(#filter11_i)">
<path d="M133.916 0H138.659L139.801 3.42021C140.017 4.06782 139.535 4.73682 138.852 4.73682H133.723C133.04 4.73682 132.558 4.06782 132.774 3.42021L133.916 0Z" fill="url(#paint16_linear)"/>
<path d="M133.916 0H138.659L139.801 3.42021C140.017 4.06782 139.535 4.73682 138.852 4.73682H133.723C133.04 4.73682 132.558 4.06782 132.774 3.42021L133.916 0Z" fill="url(#paint17_radial)"/>
</g>
<g filter="url(#filter12_di)">
<path d="M326.129 8.68417C326.129 12.1723 322.176 14.9999 322.176 14.9999C322.176 14.9999 318.223 12.1723 318.223 8.68417C318.223 5.19607 319.993 2.36841 322.176 2.36841C324.359 2.36841 326.129 5.19607 326.129 8.68417Z" fill="#376FFF"/>
<path d="M326.129 8.68417C326.129 12.1723 322.176 14.9999 322.176 14.9999C322.176 14.9999 318.223 12.1723 318.223 8.68417C318.223 5.19607 319.993 2.36841 322.176 2.36841C324.359 2.36841 326.129 5.19607 326.129 8.68417Z" fill="url(#paint18_radial)"/>
</g>
<g filter="url(#filter13_i)">
<path d="M319.804 0H324.547L325.689 3.42021C325.905 4.06782 325.423 4.73682 324.74 4.73682H319.611C318.928 4.73682 318.446 4.06782 318.662 3.42021L319.804 0Z" fill="url(#paint19_linear)"/>
<path d="M319.804 0H324.547L325.689 3.42021C325.905 4.06782 325.423 4.73682 324.74 4.73682H319.611C318.928 4.73682 318.446 4.06782 318.662 3.42021L319.804 0Z" fill="url(#paint20_radial)"/>
</g>
<g filter="url(#filter14_di)">
<path d="M251.905 8.6843C251.905 12.1724 247.953 15.0001 247.953 15.0001C247.953 15.0001 244 12.1724 244 8.6843C244 5.1962 245.77 2.36853 247.953 2.36853C250.136 2.36853 251.905 5.1962 251.905 8.6843Z" fill="#FF0000"/>
<path d="M251.905 8.6843C251.905 12.1724 247.953 15.0001 247.953 15.0001C247.953 15.0001 244 12.1724 244 8.6843C244 5.1962 245.77 2.36853 247.953 2.36853C250.136 2.36853 251.905 5.1962 251.905 8.6843Z" fill="url(#paint21_radial)"/>
</g>
<g filter="url(#filter15_i)">
<path d="M245.581 0H250.325L251.466 3.42021C251.682 4.06782 251.2 4.73682 250.518 4.73682H245.388C244.706 4.73682 244.224 4.06782 244.44 3.42021L245.581 0Z" fill="url(#paint22_linear)"/>
<path d="M245.581 0H250.325L251.466 3.42021C251.682 4.06782 251.2 4.73682 250.518 4.73682H245.388C244.706 4.73682 244.224 4.06782 244.44 3.42021L245.581 0Z" fill="url(#paint23_radial)"/>
</g>
<g filter="url(#filter16_di)">
<path d="M289.017 8.68417C289.017 12.1723 285.064 14.9999 285.064 14.9999C285.064 14.9999 281.111 12.1723 281.111 8.68417C281.111 5.19607 282.881 2.36841 285.064 2.36841C287.247 2.36841 289.017 5.19607 289.017 8.68417Z" fill="#FF378B"/>
<path d="M289.017 8.68417C289.017 12.1723 285.064 14.9999 285.064 14.9999C285.064 14.9999 281.111 12.1723 281.111 8.68417C281.111 5.19607 282.881 2.36841 285.064 2.36841C287.247 2.36841 289.017 5.19607 289.017 8.68417Z" fill="url(#paint24_radial)"/>
</g>
<g filter="url(#filter17_i)">
<path d="M282.693 0H287.436L288.577 3.42021C288.794 4.06782 288.312 4.73682 287.629 4.73682H282.5C281.817 4.73682 281.335 4.06782 281.551 3.42021L282.693 0Z" fill="url(#paint25_linear)"/>
<path d="M282.693 0H287.436L288.577 3.42021C288.794 4.06782 288.312 4.73682 287.629 4.73682H282.5C281.817 4.73682 281.335 4.06782 281.551 3.42021L282.693 0Z" fill="url(#paint26_radial)"/>
</g>
<g filter="url(#filter18_di)">
<path d="M400.351 8.68417C400.351 12.1723 396.399 14.9999 396.399 14.9999C396.399 14.9999 392.446 12.1723 392.446 8.68417C392.446 5.19607 394.216 2.36841 396.399 2.36841C398.582 2.36841 400.351 5.19607 400.351 8.68417Z" fill="#FFD600"/>
<path d="M400.351 8.68417C400.351 12.1723 396.399 14.9999 396.399 14.9999C396.399 14.9999 392.446 12.1723 392.446 8.68417C392.446 5.19607 394.216 2.36841 396.399 2.36841C398.582 2.36841 400.351 5.19607 400.351 8.68417Z" fill="url(#paint27_radial)"/>
</g>
<g filter="url(#filter19_i)">
<path d="M394.026 0H398.77L399.911 3.42021C400.127 4.06782 399.645 4.73682 398.963 4.73682H393.833C393.151 4.73682 392.669 4.06782 392.885 3.42021L394.026 0Z" fill="url(#paint28_linear)"/>
<path d="M394.026 0H398.77L399.911 3.42021C400.127 4.06782 399.645 4.73682 398.963 4.73682H393.833C393.151 4.73682 392.669 4.06782 392.885 3.42021L394.026 0Z" fill="url(#paint29_radial)"/>
</g>
<g filter="url(#filter20_di)">
<path d="M363.24 8.68417C363.24 12.1723 359.287 14.9999 359.287 14.9999C359.287 14.9999 355.335 12.1723 355.335 8.68417C355.335 5.19607 357.104 2.36841 359.287 2.36841C361.47 2.36841 363.24 5.19607 363.24 8.68417Z" fill="#00FF66"/>
<path d="M363.24 8.68417C363.24 12.1723 359.287 14.9999 359.287 14.9999C359.287 14.9999 355.335 12.1723 355.335 8.68417C355.335 5.19607 357.104 2.36841 359.287 2.36841C361.47 2.36841 363.24 5.19607 363.24 8.68417Z" fill="url(#paint30_radial)"/>
</g>
<g filter="url(#filter21_i)">
<path d="M356.915 0H361.658L362.8 3.42021C363.016 4.06782 362.534 4.73682 361.851 4.73682H356.722C356.039 4.73682 355.557 4.06782 355.773 3.42021L356.915 0Z" fill="url(#paint31_linear)"/>
<path d="M356.915 0H361.658L362.8 3.42021C363.016 4.06782 362.534 4.73682 361.851 4.73682H356.722C356.039 4.73682 355.557 4.06782 355.773 3.42021L356.915 0Z" fill="url(#paint32_radial)"/>
</g>
</g>
<defs>
<filter id="filter0_di" x="74.2241" y="-15.6316" width="49.9054" height="54.6315" filterUnits="userSpaceOnUse" color-interpolation-filters="sRGB">
<feFlood flood-opacity="0" result="BackgroundImageFix"/>
<feColorMatrix in="SourceAlpha" type="matrix" values="0 0 0 0 0 0 0 0 0 0 0 0 0 0 0 0 0 0 127 0"/>
<feOffset dy="3"/>
<feGaussianBlur stdDeviation="10.5"/>
<feColorMatrix type="matrix" values="0 0 0 0 0 0 0 0 0 0.28 0 0 0 0 1 0 0 0 1 0"/>
<feBlend mode="normal" in2="BackgroundImageFix" result="effect1_dropShadow"/>
<feBlend mode="normal" in="SourceGraphic" in2="effect1_dropShadow" result="shape"/>
<feColorMatrix in="SourceAlpha" type="matrix" values="0 0 0 0 0 0 0 0 0 0 0 0 0 0 0 0 0 0 127 0" result="hardAlpha"/>
<feOffset dy="-3"/>
<feGaussianBlur stdDeviation="0.5"/>
<feComposite in2="hardAlpha" operator="arithmetic" k2="-1" k3="1"/>
<feColorMatrix type="matrix" values="0 0 0 0 0.4875 0 0 0 0 0.631 0 0 0 0 1 0 0 0 1 0"/>
<feBlend mode="normal" in2="shape" result="effect2_innerShadow"/>
</filter>
<filter id="filter1_i" x="95.6106" y="0" width="7.13088" height="4.93682" filterUnits="userSpaceOnUse" color-interpolation-filters="sRGB">
<feFlood flood-opacity="0" result="BackgroundImageFix"/>
<feBlend mode="normal" in="SourceGraphic" in2="BackgroundImageFix" result="shape"/>
<feColorMatrix in="SourceAlpha" type="matrix" values="0 0 0 0 0 0 0 0 0 0 0 0 0 0 0 0 0 0 127 0" result="hardAlpha"/>
<feOffset dy="0.2"/>
<feGaussianBlur stdDeviation="0.5"/>
<feComposite in2="hardAlpha" operator="arithmetic" k2="-1" k3="1"/>
<feColorMatrix type="matrix" values="0 0 0 0 0 0 0 0 0 0 0 0 0 0 0 0 0 0 0.25 0"/>
<feBlend mode="normal" in2="shape" result="effect1_innerShadow"/>
</filter>
<filter id="filter2_di" x="0" y="-15.6315" width="49.9054" height="54.6315" filterUnits="userSpaceOnUse" color-interpolation-filters="sRGB">
<feFlood flood-opacity="0" result="BackgroundImageFix"/>
<feColorMatrix in="SourceAlpha" type="matrix" values="0 0 0 0 0 0 0 0 0 0 0 0 0 0 0 0 0 0 127 0"/>
<feOffset dy="3"/>
<feGaussianBlur stdDeviation="10.5"/>
<feColorMatrix type="matrix" values="0 0 0 0 1 0 0 0 0 0 0 0 0 0 0 0 0 0 1 0"/>
<feBlend mode="normal" in2="BackgroundImageFix" result="effect1_dropShadow"/>
<feBlend mode="normal" in="SourceGraphic" in2="effect1_dropShadow" result="shape"/>
<feColorMatrix in="SourceAlpha" type="matrix" values="0 0 0 0 0 0 0 0 0 0 0 0 0 0 0 0 0 0 127 0" result="hardAlpha"/>
<feOffset dy="-3"/>
<feGaussianBlur stdDeviation="0.5"/>
<feComposite in2="hardAlpha" operator="arithmetic" k2="-1" k3="1"/>
<feColorMatrix type="matrix" values="0 0 0 0 1 0 0 0 0 0.4 0 0 0 0 0.4 0 0 0 1 0"/>
<feBlend mode="normal" in2="shape" result="effect2_innerShadow"/>
</filter>
<filter id="filter3_i" x="21.3875" y="0" width="7.13088" height="4.93682" filterUnits="userSpaceOnUse" color-interpolation-filters="sRGB">
<feFlood flood-opacity="0" result="BackgroundImageFix"/>
<feBlend mode="normal" in="SourceGraphic" in2="BackgroundImageFix" result="shape"/>
<feColorMatrix in="SourceAlpha" type="matrix" values="0 0 0 0 0 0 0 0 0 0 0 0 0 0 0 0 0 0 127 0" result="hardAlpha"/>
<feOffset dy="0.2"/>
<feGaussianBlur stdDeviation="0.5"/>
<feComposite in2="hardAlpha" operator="arithmetic" k2="-1" k3="1"/>
<feColorMatrix type="matrix" values="0 0 0 0 0 0 0 0 0 0 0 0 0 0 0 0 0 0 0.25 0"/>
<feBlend mode="normal" in2="shape" result="effect1_innerShadow"/>
</filter>
<filter id="filter4_di" x="185.558" y="-15.6315" width="49.9054" height="54.6315" filterUnits="userSpaceOnUse" color-interpolation-filters="sRGB">
<feFlood flood-opacity="0" result="BackgroundImageFix"/>
<feColorMatrix in="SourceAlpha" type="matrix" values="0 0 0 0 0 0 0 0 0 0 0 0 0 0 0 0 0 0 127 0"/>
<feOffset dy="3"/>
<feGaussianBlur stdDeviation="10.5"/>
<feColorMatrix type="matrix" values="0 0 0 0 0.810417 0 0 0 0 0.270833 0 0 0 0 1 0 0 0 1 0"/>
<feBlend mode="normal" in2="BackgroundImageFix" result="effect1_dropShadow"/>
<feBlend mode="normal" in="SourceGraphic" in2="effect1_dropShadow" result="shape"/>
<feColorMatrix in="SourceAlpha" type="matrix" values="0 0 0 0 0 0 0 0 0 0 0 0 0 0 0 0 0 0 127 0" result="hardAlpha"/>
<feOffset dy="-3"/>
<feGaussianBlur stdDeviation="0.5"/>
<feComposite in2="hardAlpha" operator="arithmetic" k2="-1" k3="1"/>
<feColorMatrix type="matrix" values="0 0 0 0 0.805719 0 0 0 0 0.395833 0 0 0 0 1 0 0 0 1 0"/>
<feBlend mode="normal" in2="shape" result="effect2_innerShadow"/>
</filter>
<filter id="filter5_i" x="206.944" y="0" width="7.13088" height="4.93682" filterUnits="userSpaceOnUse" color-interpolation-filters="sRGB">
<feFlood flood-opacity="0" result="BackgroundImageFix"/>
<feBlend mode="normal" in="SourceGraphic" in2="BackgroundImageFix" result="shape"/>
<feColorMatrix in="SourceAlpha" type="matrix" values="0 0 0 0 0 0 0 0 0 0 0 0 0 0 0 0 0 0 127 0" result="hardAlpha"/>
<feOffset dy="0.2"/>
<feGaussianBlur stdDeviation="0.5"/>
<feComposite in2="hardAlpha" operator="arithmetic" k2="-1" k3="1"/>
<feColorMatrix type="matrix" values="0 0 0 0 0 0 0 0 0 0 0 0 0 0 0 0 0 0 0.25 0"/>
<feBlend mode="normal" in2="shape" result="effect1_innerShadow"/>
</filter>
<filter id="filter6_di" x="37.1113" y="-15.6316" width="49.9054" height="54.6315" filterUnits="userSpaceOnUse" color-interpolation-filters="sRGB">
<feFlood flood-opacity="0" result="BackgroundImageFix"/>
<feColorMatrix in="SourceAlpha" type="matrix" values="0 0 0 0 0 0 0 0 0 0 0 0 0 0 0 0 0 0 127 0"/>
<feOffset dy="3"/>
<feGaussianBlur stdDeviation="10.5"/>
<feColorMatrix type="matrix" values="0 0 0 0 1 0 0 0 0 0.4875 0 0 0 0 0.4875 0 0 0 1 0"/>
<feBlend mode="normal" in2="BackgroundImageFix" result="effect1_dropShadow"/>
<feBlend mode="normal" in="SourceGraphic" in2="effect1_dropShadow" result="shape"/>
<feColorMatrix in="SourceAlpha" type="matrix" values="0 0 0 0 0 0 0 0 0 0 0 0 0 0 0 0 0 0 127 0" result="hardAlpha"/>
<feOffset dy="-3"/>
<feGaussianBlur stdDeviation="0.5"/>
<feComposite in2="hardAlpha" operator="arithmetic" k2="-1" k3="1"/>
<feColorMatrix type="matrix" values="0 0 0 0 1 0 0 0 0 0.566667 0 0 0 0 0.566667 0 0 0 1 0"/>
<feBlend mode="normal" in2="shape" result="effect2_innerShadow"/>
</filter>
<filter id="filter7_i" x="58.4988" y="0" width="7.13088" height="4.93682" filterUnits="userSpaceOnUse" color-interpolation-filters="sRGB">
<feFlood flood-opacity="0" result="BackgroundImageFix"/>
<feBlend mode="normal" in="SourceGraphic" in2="BackgroundImageFix" result="shape"/>
<feColorMatrix in="SourceAlpha" type="matrix" values="0 0 0 0 0 0 0 0 0 0 0 0 0 0 0 0 0 0 127 0" result="hardAlpha"/>
<feOffset dy="0.2"/>
<feGaussianBlur stdDeviation="0.5"/>
<feComposite in2="hardAlpha" operator="arithmetic" k2="-1" k3="1"/>
<feColorMatrix type="matrix" values="0 0 0 0 0 0 0 0 0 0 0 0 0 0 0 0 0 0 0.25 0"/>
<feBlend mode="normal" in2="shape" result="effect1_innerShadow"/>
</filter>
<filter id="filter8_di" x="148.447" y="-15.6316" width="49.9054" height="54.6315" filterUnits="userSpaceOnUse" color-interpolation-filters="sRGB">
<feFlood flood-opacity="0" result="BackgroundImageFix"/>
<feColorMatrix in="SourceAlpha" type="matrix" values="0 0 0 0 0 0 0 0 0 0 0 0 0 0 0 0 0 0 127 0"/>
<feOffset dy="3"/>
<feGaussianBlur stdDeviation="10.5"/>
<feColorMatrix type="matrix" values="0 0 0 0 1 0 0 0 0 0.9 0 0 0 0 0 0 0 0 1 0"/>
<feBlend mode="normal" in2="BackgroundImageFix" result="effect1_dropShadow"/>
<feBlend mode="normal" in="SourceGraphic" in2="effect1_dropShadow" result="shape"/>
<feColorMatrix in="SourceAlpha" type="matrix" values="0 0 0 0 0 0 0 0 0 0 0 0 0 0 0 0 0 0 127 0" result="hardAlpha"/>
<feOffset dy="-3"/>
<feGaussianBlur stdDeviation="0.5"/>
<feComposite in2="hardAlpha" operator="arithmetic" k2="-1" k3="1"/>
<feColorMatrix type="matrix" values="0 0 0 0 1 0 0 0 0 0.9 0 0 0 0 0 0 0 0 1 0"/>
<feBlend mode="normal" in2="shape" result="effect2_innerShadow"/>
</filter>
<filter id="filter9_i" x="169.833" y="0" width="7.13088" height="4.93682" filterUnits="userSpaceOnUse" color-interpolation-filters="sRGB">
<feFlood flood-opacity="0" result="BackgroundImageFix"/>
<feBlend mode="normal" in="SourceGraphic" in2="BackgroundImageFix" result="shape"/>
<feColorMatrix in="SourceAlpha" type="matrix" values="0 0 0 0 0 0 0 0 0 0 0 0 0 0 0 0 0 0 127 0" result="hardAlpha"/>
<feOffset dy="0.2"/>
<feGaussianBlur stdDeviation="0.5"/>
<feComposite in2="hardAlpha" operator="arithmetic" k2="-1" k3="1"/>
<feColorMatrix type="matrix" values="0 0 0 0 0 0 0 0 0 0 0 0 0 0 0 0 0 0 0.25 0"/>
<feBlend mode="normal" in2="shape" result="effect1_innerShadow"/>
</filter>
<filter id="filter10_di" x="111.335" y="-15.6316" width="49.9054" height="54.6315" filterUnits="userSpaceOnUse" color-interpolation-filters="sRGB">
<feFlood flood-opacity="0" result="BackgroundImageFix"/>
<feColorMatrix in="SourceAlpha" type="matrix" values="0 0 0 0 0 0 0 0 0 0 0 0 0 0 0 0 0 0 127 0"/>
<feOffset dy="3"/>
<feGaussianBlur stdDeviation="10.5"/>
<feColorMatrix type="matrix" values="0 0 0 0 0 0 0 0 0 1 0 0 0 0 0.4 0 0 0 1 0"/>
<feBlend mode="normal" in2="BackgroundImageFix" result="effect1_dropShadow"/>
<feBlend mode="normal" in="SourceGraphic" in2="effect1_dropShadow" result="shape"/>
<feColorMatrix in="SourceAlpha" type="matrix" values="0 0 0 0 0 0 0 0 0 0 0 0 0 0 0 0 0 0 127 0" result="hardAlpha"/>
<feOffset dy="-3"/>
<feGaussianBlur stdDeviation="0.5"/>
<feComposite in2="hardAlpha" operator="arithmetic" k2="-1" k3="1"/>
<feColorMatrix type="matrix" values="0 0 0 0 0.4125 0 0 0 0 1 0 0 0 0 0.6475 0 0 0 1 0"/>
<feBlend mode="normal" in2="shape" result="effect2_innerShadow"/>
</filter>
<filter id="filter11_i" x="132.722" y="0" width="7.13088" height="4.93682" filterUnits="userSpaceOnUse" color-interpolation-filters="sRGB">
<feFlood flood-opacity="0" result="BackgroundImageFix"/>
<feBlend mode="normal" in="SourceGraphic" in2="BackgroundImageFix" result="shape"/>
<feColorMatrix in="SourceAlpha" type="matrix" values="0 0 0 0 0 0 0 0 0 0 0 0 0 0 0 0 0 0 127 0" result="hardAlpha"/>
<feOffset dy="0.2"/>
<feGaussianBlur stdDeviation="0.5"/>
<feComposite in2="hardAlpha" operator="arithmetic" k2="-1" k3="1"/>
<feColorMatrix type="matrix" values="0 0 0 0 0 0 0 0 0 0 0 0 0 0 0 0 0 0 0.25 0"/>
<feBlend mode="normal" in2="shape" result="effect1_innerShadow"/>
</filter>
<filter id="filter12_di" x="297.223" y="-15.6316" width="49.9054" height="54.6315" filterUnits="userSpaceOnUse" color-interpolation-filters="sRGB">
<feFlood flood-opacity="0" result="BackgroundImageFix"/>
<feColorMatrix in="SourceAlpha" type="matrix" values="0 0 0 0 0 0 0 0 0 0 0 0 0 0 0 0 0 0 127 0"/>
<feOffset dy="3"/>
<feGaussianBlur stdDeviation="10.5"/>
<feColorMatrix type="matrix" values="0 0 0 0 0 0 0 0 0 0.28 0 0 0 0 1 0 0 0 1 0"/>
<feBlend mode="normal" in2="BackgroundImageFix" result="effect1_dropShadow"/>
<feBlend mode="normal" in="SourceGraphic" in2="effect1_dropShadow" result="shape"/>
<feColorMatrix in="SourceAlpha" type="matrix" values="0 0 0 0 0 0 0 0 0 0 0 0 0 0 0 0 0 0 127 0" result="hardAlpha"/>
<feOffset dy="-3"/>
<feGaussianBlur stdDeviation="0.5"/>
<feComposite in2="hardAlpha" operator="arithmetic" k2="-1" k3="1"/>
<feColorMatrix type="matrix" values="0 0 0 0 0.4875 0 0 0 0 0.631 0 0 0 0 1 0 0 0 1 0"/>
<feBlend mode="normal" in2="shape" result="effect2_innerShadow"/>
</filter>
<filter id="filter13_i" x="318.61" y="0" width="7.13088" height="4.93682" filterUnits="userSpaceOnUse" color-interpolation-filters="sRGB">
<feFlood flood-opacity="0" result="BackgroundImageFix"/>
<feBlend mode="normal" in="SourceGraphic" in2="BackgroundImageFix" result="shape"/>
<feColorMatrix in="SourceAlpha" type="matrix" values="0 0 0 0 0 0 0 0 0 0 0 0 0 0 0 0 0 0 127 0" result="hardAlpha"/>
<feOffset dy="0.2"/>
<feGaussianBlur stdDeviation="0.5"/>
<feComposite in2="hardAlpha" operator="arithmetic" k2="-1" k3="1"/>
<feColorMatrix type="matrix" values="0 0 0 0 0 0 0 0 0 0 0 0 0 0 0 0 0 0 0.25 0"/>
<feBlend mode="normal" in2="shape" result="effect1_innerShadow"/>
</filter>
<filter id="filter14_di" x="223" y="-15.6315" width="49.9054" height="54.6315" filterUnits="userSpaceOnUse" color-interpolation-filters="sRGB">
<feFlood flood-opacity="0" result="BackgroundImageFix"/>
<feColorMatrix in="SourceAlpha" type="matrix" values="0 0 0 0 0 0 0 0 0 0 0 0 0 0 0 0 0 0 127 0"/>
<feOffset dy="3"/>
<feGaussianBlur stdDeviation="10.5"/>
<feColorMatrix type="matrix" values="0 0 0 0 1 0 0 0 0 0 0 0 0 0 0 0 0 0 1 0"/>
<feBlend mode="normal" in2="BackgroundImageFix" result="effect1_dropShadow"/>
<feBlend mode="normal" in="SourceGraphic" in2="effect1_dropShadow" result="shape"/>
<feColorMatrix in="SourceAlpha" type="matrix" values="0 0 0 0 0 0 0 0 0 0 0 0 0 0 0 0 0 0 127 0" result="hardAlpha"/>
<feOffset dy="-3"/>
<feGaussianBlur stdDeviation="0.5"/>
<feComposite in2="hardAlpha" operator="arithmetic" k2="-1" k3="1"/>
<feColorMatrix type="matrix" values="0 0 0 0 1 0 0 0 0 0.4 0 0 0 0 0.4 0 0 0 1 0"/>
<feBlend mode="normal" in2="shape" result="effect2_innerShadow"/>
</filter>
<filter id="filter15_i" x="244.387" y="0" width="7.13088" height="4.93682" filterUnits="userSpaceOnUse" color-interpolation-filters="sRGB">
<feFlood flood-opacity="0" result="BackgroundImageFix"/>
<feBlend mode="normal" in="SourceGraphic" in2="BackgroundImageFix" result="shape"/>
<feColorMatrix in="SourceAlpha" type="matrix" values="0 0 0 0 0 0 0 0 0 0 0 0 0 0 0 0 0 0 127 0" result="hardAlpha"/>
<feOffset dy="0.2"/>
<feGaussianBlur stdDeviation="0.5"/>
<feComposite in2="hardAlpha" operator="arithmetic" k2="-1" k3="1"/>
<feColorMatrix type="matrix" values="0 0 0 0 0 0 0 0 0 0 0 0 0 0 0 0 0 0 0.25 0"/>
<feBlend mode="normal" in2="shape" result="effect1_innerShadow"/>
</filter>
<filter id="filter16_di" x="260.111" y="-15.6316" width="49.9054" height="54.6315" filterUnits="userSpaceOnUse" color-interpolation-filters="sRGB">
<feFlood flood-opacity="0" result="BackgroundImageFix"/>
<feColorMatrix in="SourceAlpha" type="matrix" values="0 0 0 0 0 0 0 0 0 0 0 0 0 0 0 0 0 0 127 0"/>
<feOffset dy="3"/>
<feGaussianBlur stdDeviation="10.5"/>
<feColorMatrix type="matrix" values="0 0 0 0 1 0 0 0 0 0.4875 0 0 0 0 0.4875 0 0 0 1 0"/>
<feBlend mode="normal" in2="BackgroundImageFix" result="effect1_dropShadow"/>
<feBlend mode="normal" in="SourceGraphic" in2="effect1_dropShadow" result="shape"/>
<feColorMatrix in="SourceAlpha" type="matrix" values="0 0 0 0 0 0 0 0 0 0 0 0 0 0 0 0 0 0 127 0" result="hardAlpha"/>
<feOffset dy="-3"/>
<feGaussianBlur stdDeviation="0.5"/>
<feComposite in2="hardAlpha" operator="arithmetic" k2="-1" k3="1"/>
<feColorMatrix type="matrix" values="0 0 0 0 1 0 0 0 0 0.566667 0 0 0 0 0.566667 0 0 0 1 0"/>
<feBlend mode="normal" in2="shape" result="effect2_innerShadow"/>
</filter>
<filter id="filter17_i" x="281.499" y="0" width="7.13088" height="4.93682" filterUnits="userSpaceOnUse" color-interpolation-filters="sRGB">
<feFlood flood-opacity="0" result="BackgroundImageFix"/>
<feBlend mode="normal" in="SourceGraphic" in2="BackgroundImageFix" result="shape"/>
<feColorMatrix in="SourceAlpha" type="matrix" values="0 0 0 0 0 0 0 0 0 0 0 0 0 0 0 0 0 0 127 0" result="hardAlpha"/>
<feOffset dy="0.2"/>
<feGaussianBlur stdDeviation="0.5"/>
<feComposite in2="hardAlpha" operator="arithmetic" k2="-1" k3="1"/>
<feColorMatrix type="matrix" values="0 0 0 0 0 0 0 0 0 0 0 0 0 0 0 0 0 0 0.25 0"/>
<feBlend mode="normal" in2="shape" result="effect1_innerShadow"/>
</filter>
<filter id="filter18_di" x="371.446" y="-15.6316" width="49.9054" height="54.6315" filterUnits="userSpaceOnUse" color-interpolation-filters="sRGB">
<feFlood flood-opacity="0" result="BackgroundImageFix"/>
<feColorMatrix in="SourceAlpha" type="matrix" values="0 0 0 0 0 0 0 0 0 0 0 0 0 0 0 0 0 0 127 0"/>
<feOffset dy="3"/>
<feGaussianBlur stdDeviation="10.5"/>
<feColorMatrix type="matrix" values="0 0 0 0 1 0 0 0 0 0.9 0 0 0 0 0 0 0 0 1 0"/>
<feBlend mode="normal" in2="BackgroundImageFix" result="effect1_dropShadow"/>
<feBlend mode="normal" in="SourceGraphic" in2="effect1_dropShadow" result="shape"/>
<feColorMatrix in="SourceAlpha" type="matrix" values="0 0 0 0 0 0 0 0 0 0 0 0 0 0 0 0 0 0 127 0" result="hardAlpha"/>
<feOffset dy="-3"/>
<feGaussianBlur stdDeviation="0.5"/>
<feComposite in2="hardAlpha" operator="arithmetic" k2="-1" k3="1"/>
<feColorMatrix type="matrix" values="0 0 0 0 1 0 0 0 0 0.9 0 0 0 0 0 0 0 0 1 0"/>
<feBlend mode="normal" in2="shape" result="effect2_innerShadow"/>
</filter>
<filter id="filter19_i" x="392.833" y="0" width="7.13088" height="4.93682" filterUnits="userSpaceOnUse" color-interpolation-filters="sRGB">
<feFlood flood-opacity="0" result="BackgroundImageFix"/>
<feBlend mode="normal" in="SourceGraphic" in2="BackgroundImageFix" result="shape"/>
<feColorMatrix in="SourceAlpha" type="matrix" values="0 0 0 0 0 0 0 0 0 0 0 0 0 0 0 0 0 0 127 0" result="hardAlpha"/>
<feOffset dy="0.2"/>
<feGaussianBlur stdDeviation="0.5"/>
<feComposite in2="hardAlpha" operator="arithmetic" k2="-1" k3="1"/>
<feColorMatrix type="matrix" values="0 0 0 0 0 0 0 0 0 0 0 0 0 0 0 0 0 0 0.25 0"/>
<feBlend mode="normal" in2="shape" result="effect1_innerShadow"/>
</filter>
<filter id="filter20_di" x="334.335" y="-15.6316" width="49.9054" height="54.6315" filterUnits="userSpaceOnUse" color-interpolation-filters="sRGB">
<feFlood flood-opacity="0" result="BackgroundImageFix"/>
<feColorMatrix in="SourceAlpha" type="matrix" values="0 0 0 0 0 0 0 0 0 0 0 0 0 0 0 0 0 0 127 0"/>
<feOffset dy="3"/>
<feGaussianBlur stdDeviation="10.5"/>
<feColorMatrix type="matrix" values="0 0 0 0 0 0 0 0 0 1 0 0 0 0 0.4 0 0 0 1 0"/>
<feBlend mode="normal" in2="BackgroundImageFix" result="effect1_dropShadow"/>
<feBlend mode="normal" in="SourceGraphic" in2="effect1_dropShadow" result="shape"/>
<feColorMatrix in="SourceAlpha" type="matrix" values="0 0 0 0 0 0 0 0 0 0 0 0 0 0 0 0 0 0 127 0" result="hardAlpha"/>
<feOffset dy="-3"/>
<feGaussianBlur stdDeviation="0.5"/>
<feComposite in2="hardAlpha" operator="arithmetic" k2="-1" k3="1"/>
<feColorMatrix type="matrix" values="0 0 0 0 0.4125 0 0 0 0 1 0 0 0 0 0.6475 0 0 0 1 0"/>
<feBlend mode="normal" in2="shape" result="effect2_innerShadow"/>
</filter>
<filter id="filter21_i" x="355.721" y="0" width="7.13088" height="4.93682" filterUnits="userSpaceOnUse" color-interpolation-filters="sRGB">
<feFlood flood-opacity="0" result="BackgroundImageFix"/>
<feBlend mode="normal" in="SourceGraphic" in2="BackgroundImageFix" result="shape"/>
<feColorMatrix in="SourceAlpha" type="matrix" values="0 0 0 0 0 0 0 0 0 0 0 0 0 0 0 0 0 0 127 0" result="hardAlpha"/>
<feOffset dy="0.2"/>
<feGaussianBlur stdDeviation="0.5"/>
<feComposite in2="hardAlpha" operator="arithmetic" k2="-1" k3="1"/>
<feColorMatrix type="matrix" values="0 0 0 0 0 0 0 0 0 0 0 0 0 0 0 0 0 0 0.25 0"/>
<feBlend mode="normal" in2="shape" result="effect1_innerShadow"/>
</filter>
<radialGradient id="paint0_radial" cx="0" cy="0" r="1" gradientUnits="userSpaceOnUse" gradientTransform="translate(97.991 11.0526) rotate(66.0088) scale(3.88856 1.45325)">
<stop stop-color="white"/>
<stop offset="1" stop-color="white" stop-opacity="0"/>
</radialGradient>
<linearGradient id="paint1_linear" x1="99.1761" y1="0" x2="99.1761" y2="4.73682" gradientUnits="userSpaceOnUse">
<stop stop-color="#FF9C07"/>
<stop offset="1" stop-color="#FFC700"/>
</linearGradient>
<radialGradient id="paint2_radial" cx="0" cy="0" r="1" gradientUnits="userSpaceOnUse" gradientTransform="translate(97.1997 3.55262) rotate(30.9296) scale(2.30397 1.04444)">
<stop stop-color="#FFF617"/>
<stop offset="1" stop-color="#FFB774" stop-opacity="0"/>
</radialGradient>
<radialGradient id="paint3_radial" cx="0" cy="0" r="1" gradientUnits="userSpaceOnUse" gradientTransform="translate(23.7669 11.0527) rotate(66.0088) scale(3.88856 1.45325)">
<stop stop-color="white"/>
<stop offset="1" stop-color="white" stop-opacity="0"/>
</radialGradient>
<linearGradient id="paint4_linear" x1="24.9529" y1="0" x2="24.9529" y2="4.73682" gradientUnits="userSpaceOnUse">
<stop stop-color="#FF9C07"/>
<stop offset="1" stop-color="#FFC700"/>
</linearGradient>
<radialGradient id="paint5_radial" cx="0" cy="0" r="1" gradientUnits="userSpaceOnUse" gradientTransform="translate(22.9766 3.55262) rotate(30.9296) scale(2.30397 1.04444)">
<stop stop-color="#FFF617"/>
<stop offset="1" stop-color="#FFB774" stop-opacity="0"/>
</radialGradient>
<radialGradient id="paint6_radial" cx="0" cy="0" r="1" gradientUnits="userSpaceOnUse" gradientTransform="translate(209.325 11.0527) rotate(66.0088) scale(3.88856 1.45325)">
<stop stop-color="white"/>
<stop offset="1" stop-color="white" stop-opacity="0"/>
</radialGradient>
<linearGradient id="paint7_linear" x1="210.51" y1="0" x2="210.51" y2="4.73682" gradientUnits="userSpaceOnUse">
<stop stop-color="#FF9C07"/>
<stop offset="1" stop-color="#FFC700"/>
</linearGradient>
<radialGradient id="paint8_radial" cx="0" cy="0" r="1" gradientUnits="userSpaceOnUse" gradientTransform="translate(208.533 3.55262) rotate(30.9296) scale(2.30397 1.04444)">
<stop stop-color="#FFF617"/>
<stop offset="1" stop-color="#FFB774" stop-opacity="0"/>
</radialGradient>
<radialGradient id="paint9_radial" cx="0" cy="0" r="1" gradientUnits="userSpaceOnUse" gradientTransform="translate(60.8782 11.0526) rotate(66.0088) scale(3.88856 1.45325)">
<stop stop-color="white"/>
<stop offset="1" stop-color="white" stop-opacity="0"/>
</radialGradient>
<linearGradient id="paint10_linear" x1="62.0643" y1="0" x2="62.0643" y2="4.73682" gradientUnits="userSpaceOnUse">
<stop stop-color="#FF9C07"/>
<stop offset="1" stop-color="#FFC700"/>
</linearGradient>
<radialGradient id="paint11_radial" cx="0" cy="0" r="1" gradientUnits="userSpaceOnUse" gradientTransform="translate(60.0879 3.55262) rotate(30.9296) scale(2.30397 1.04444)">
<stop stop-color="#FFF617"/>
<stop offset="1" stop-color="#FFB774" stop-opacity="0"/>
</radialGradient>
<radialGradient id="paint12_radial" cx="0" cy="0" r="1" gradientUnits="userSpaceOnUse" gradientTransform="translate(172.214 11.0526) rotate(66.0088) scale(3.88856 1.45325)">
<stop stop-color="white"/>
<stop offset="1" stop-color="white" stop-opacity="0"/>
</radialGradient>
<linearGradient id="paint13_linear" x1="173.399" y1="0" x2="173.399" y2="4.73682" gradientUnits="userSpaceOnUse">
<stop stop-color="#FF9C07"/>
<stop offset="1" stop-color="#FFC700"/>
</linearGradient>
<radialGradient id="paint14_radial" cx="0" cy="0" r="1" gradientUnits="userSpaceOnUse" gradientTransform="translate(171.422 3.55262) rotate(30.9296) scale(2.30397 1.04444)">
<stop stop-color="#FFF617"/>
<stop offset="1" stop-color="#FFB774" stop-opacity="0"/>
</radialGradient>
<radialGradient id="paint15_radial" cx="0" cy="0" r="1" gradientUnits="userSpaceOnUse" gradientTransform="translate(135.102 11.0526) rotate(66.0088) scale(3.88856 1.45325)">
<stop stop-color="white"/>
<stop offset="1" stop-color="white" stop-opacity="0"/>
</radialGradient>
<linearGradient id="paint16_linear" x1="136.287" y1="0" x2="136.287" y2="4.73682" gradientUnits="userSpaceOnUse">
<stop stop-color="#FF9C07"/>
<stop offset="1" stop-color="#FFC700"/>
</linearGradient>
<radialGradient id="paint17_radial" cx="0" cy="0" r="1" gradientUnits="userSpaceOnUse" gradientTransform="translate(134.311 3.55262) rotate(30.9296) scale(2.30397 1.04444)">
<stop stop-color="#FFF617"/>
<stop offset="1" stop-color="#FFB774" stop-opacity="0"/>
</radialGradient>
<radialGradient id="paint18_radial" cx="0" cy="0" r="1" gradientUnits="userSpaceOnUse" gradientTransform="translate(320.99 11.0526) rotate(66.0088) scale(3.88856 1.45325)">
<stop stop-color="white"/>
<stop offset="1" stop-color="white" stop-opacity="0"/>
</radialGradient>
<linearGradient id="paint19_linear" x1="322.175" y1="0" x2="322.175" y2="4.73682" gradientUnits="userSpaceOnUse">
<stop stop-color="#FF9C07"/>
<stop offset="1" stop-color="#FFC700"/>
</linearGradient>
<radialGradient id="paint20_radial" cx="0" cy="0" r="1" gradientUnits="userSpaceOnUse" gradientTransform="translate(320.199 3.55262) rotate(30.9296) scale(2.30397 1.04444)">
<stop stop-color="#FFF617"/>
<stop offset="1" stop-color="#FFB774" stop-opacity="0"/>
</radialGradient>
<radialGradient id="paint21_radial" cx="0" cy="0" r="1" gradientUnits="userSpaceOnUse" gradientTransform="translate(246.767 11.0527) rotate(66.0088) scale(3.88856 1.45325)">
<stop stop-color="white"/>
<stop offset="1" stop-color="white" stop-opacity="0"/>
</radialGradient>
<linearGradient id="paint22_linear" x1="247.953" y1="0" x2="247.953" y2="4.73682" gradientUnits="userSpaceOnUse">
<stop stop-color="#FF9C07"/>
<stop offset="1" stop-color="#FFC700"/>
</linearGradient>
<radialGradient id="paint23_radial" cx="0" cy="0" r="1" gradientUnits="userSpaceOnUse" gradientTransform="translate(245.977 3.55262) rotate(30.9296) scale(2.30397 1.04444)">
<stop stop-color="#FFF617"/>
<stop offset="1" stop-color="#FFB774" stop-opacity="0"/>
</radialGradient>
<radialGradient id="paint24_radial" cx="0" cy="0" r="1" gradientUnits="userSpaceOnUse" gradientTransform="translate(283.878 11.0526) rotate(66.0088) scale(3.88856 1.45325)">
<stop stop-color="white"/>
<stop offset="1" stop-color="white" stop-opacity="0"/>
</radialGradient>
<linearGradient id="paint25_linear" x1="285.064" y1="0" x2="285.064" y2="4.73682" gradientUnits="userSpaceOnUse">
<stop stop-color="#FF9C07"/>
<stop offset="1" stop-color="#FFC700"/>
</linearGradient>
<radialGradient id="paint26_radial" cx="0" cy="0" r="1" gradientUnits="userSpaceOnUse" gradientTransform="translate(283.088 3.55262) rotate(30.9296) scale(2.30397 1.04444)">
<stop stop-color="#FFF617"/>
<stop offset="1" stop-color="#FFB774" stop-opacity="0"/>
</radialGradient>
<radialGradient id="paint27_radial" cx="0" cy="0" r="1" gradientUnits="userSpaceOnUse" gradientTransform="translate(395.213 11.0526) rotate(66.0088) scale(3.88856 1.45325)">
<stop stop-color="white"/>
<stop offset="1" stop-color="white" stop-opacity="0"/>
</radialGradient>
<linearGradient id="paint28_linear" x1="396.398" y1="0" x2="396.398" y2="4.73682" gradientUnits="userSpaceOnUse">
<stop stop-color="#FF9C07"/>
<stop offset="1" stop-color="#FFC700"/>
</linearGradient>
<radialGradient id="paint29_radial" cx="0" cy="0" r="1" gradientUnits="userSpaceOnUse" gradientTransform="translate(394.422 3.55262) rotate(30.9296) scale(2.30397 1.04444)">
<stop stop-color="#FFF617"/>
<stop offset="1" stop-color="#FFB774" stop-opacity="0"/>
</radialGradient>
<radialGradient id="paint30_radial" cx="0" cy="0" r="1" gradientUnits="userSpaceOnUse" gradientTransform="translate(358.102 11.0526) rotate(66.0088) scale(3.88856 1.45325)">
<stop stop-color="white"/>
<stop offset="1" stop-color="white" stop-opacity="0"/>
</radialGradient>
<linearGradient id="paint31_linear" x1="359.287" y1="0" x2="359.287" y2="4.73682" gradientUnits="userSpaceOnUse">
<stop stop-color="#FF9C07"/>
<stop offset="1" stop-color="#FFC700"/>
</linearGradient>
<radialGradient id="paint32_radial" cx="0" cy="0" r="1" gradientUnits="userSpaceOnUse" gradientTransform="translate(357.31 3.55262) rotate(30.9296) scale(2.30397 1.04444)">
<stop stop-color="#FFF617"/>
<stop offset="1" stop-color="#FFB774" stop-opacity="0"/>
</radialGradient>
<clipPath id="clip0">
<rect width="422" height="31" fill="white"/>
</clipPath>
</defs>
</svg>
