<svg width="569" height="243" viewBox="0 0 569 243" fill="none" xmlns="http://www.w3.org/2000/svg">
<g filter="url(#filter0_i)">
<path d="M36 229.4L46 79.1L9 74.9L10 31.4L103 10.4L104.2 37.4L101.2 67.4L97.5 222.9L36 229.4Z" fill="url(#paint0_linear)"/>
<path d="M246.189 234.8C229.189 234.8 213.889 231.3 200.289 224.3C186.889 217.3 176.289 205.9 168.489 190.1C160.689 174.1 156.789 152.6 156.789 125.6C156.789 98.8 160.689 77.5 168.489 61.7C176.289 45.7 186.889 34.2 200.289 27.2C213.889 20 229.189 16.4 246.189 16.4C263.389 16.4 278.689 20 292.089 27.2C305.489 34.4 316.089 46 323.889 62C331.689 77.8 335.589 99 335.589 125.6C335.589 152.2 331.689 173.5 323.889 189.5C316.089 205.5 305.489 217.1 292.089 224.3C278.689 231.3 263.389 234.8 246.189 234.8ZM246.189 182.6C256.989 182.6 265.089 178.4 270.489 170C276.089 161.6 278.889 146.8 278.889 125.6C278.889 104.4 276.089 89.6 270.489 81.2C265.089 72.8 256.989 68.6 246.189 68.6C235.589 68.6 227.489 72.9 221.889 81.5C216.289 90.1 213.489 104.8 213.489 125.6C213.489 146.4 216.289 161.1 221.889 169.7C227.489 178.3 235.589 182.6 246.189 182.6Z" fill="url(#paint1_linear)"/>
<path d="M471.423 234.8C454.423 234.8 439.123 231.3 425.523 224.3C412.123 217.3 401.523 205.9 393.723 190.1C385.923 174.1 382.023 152.6 382.023 125.6C382.023 98.8 385.923 77.5 393.723 61.7C401.523 45.7 412.123 34.2 425.523 27.2C439.123 20 454.423 16.4 471.423 16.4C488.623 16.4 503.923 20 517.323 27.2C530.723 34.4 541.323 46 549.123 62C556.923 77.8 560.823 99 560.823 125.6C560.823 152.2 556.923 173.5 549.123 189.5C541.323 205.5 530.723 217.1 517.323 224.3C503.923 231.3 488.623 234.8 471.423 234.8ZM471.423 182.6C482.223 182.6 490.323 178.4 495.723 170C501.323 161.6 504.123 146.8 504.123 125.6C504.123 104.4 501.323 89.6 495.723 81.2C490.323 72.8 482.223 68.6 471.423 68.6C460.823 68.6 452.723 72.9 447.123 81.5C441.523 90.1 438.723 104.8 438.723 125.6C438.723 146.4 441.523 161.1 447.123 169.7C452.723 178.3 460.823 182.6 471.423 182.6Z" fill="url(#paint2_linear)"/>
</g>
<path d="M32.0088 229.134L31.6933 233.877L36.4204 233.378L97.9204 226.878L101.415 226.508L101.499 222.995L105.195 67.6469L108.18 37.7981L108.209 37.5108L108.196 37.2224L106.996 10.2224L106.784 5.44493L102.119 6.49826L9.11896 27.4983L6.07283 28.1861L6.00106 31.3081L5.00106 74.8081L4.91705 78.4622L8.54884 78.8745L41.7554 82.6439L32.0088 229.134ZM198.437 227.845L198.448 227.851L198.458 227.857C212.685 235.179 228.624 238.8 246.189 238.8C263.944 238.8 279.895 235.183 293.941 227.845L293.962 227.835L293.982 227.824C308.241 220.162 319.381 207.875 327.485 191.253C335.65 174.504 339.589 152.533 339.589 125.6C339.589 98.6786 335.653 76.8006 327.482 60.2426C319.379 43.6231 308.24 31.3373 293.982 23.6765C279.928 16.1248 263.962 12.4 246.189 12.4C228.61 12.4 212.66 16.1268 198.428 23.6594C184.149 31.1211 173.002 43.3184 164.898 59.9377C156.724 76.4996 152.789 98.4816 152.789 125.6C152.789 152.922 156.725 175.098 164.894 191.853L164.898 191.862L164.902 191.871C173.013 208.301 184.166 220.39 198.437 227.845ZM267.161 167.781L267.142 167.809L267.124 167.837C262.529 174.985 255.76 178.6 246.189 178.6C236.888 178.6 230.074 174.94 225.241 167.517C220.317 159.955 217.489 146.277 217.489 125.6C217.489 104.923 220.317 91.2452 225.241 83.6827C230.074 76.2605 236.888 72.6 246.189 72.6C255.76 72.6 262.529 76.2151 267.124 83.3631L267.142 83.3911L267.161 83.4188C272.051 90.7541 274.889 104.489 274.889 125.6C274.889 146.711 272.051 160.446 267.161 167.781ZM423.671 227.845L423.682 227.851L423.693 227.857C437.92 235.179 453.859 238.8 471.423 238.8C489.179 238.8 505.129 235.183 519.176 227.845L519.196 227.835L519.217 227.824C533.476 220.162 544.616 207.875 552.719 191.253C560.884 174.504 564.823 152.533 564.823 125.6C564.823 98.6788 560.887 76.8011 552.717 60.2431C544.614 43.6234 533.475 31.3374 519.217 23.6765C505.162 16.1248 489.197 12.4 471.423 12.4C453.845 12.4 437.895 16.1268 423.662 23.6594C409.382 31.1219 398.234 43.3209 390.13 59.9429C381.958 76.5042 378.023 98.4844 378.023 125.6C378.023 152.922 381.96 175.098 390.128 191.853L390.132 191.862L390.137 191.871C398.248 208.301 409.4 220.39 423.671 227.845ZM492.395 167.781L492.377 167.809L492.359 167.837C487.764 174.985 480.995 178.6 471.423 178.6C462.123 178.6 455.309 174.94 450.475 167.517C445.551 159.955 442.723 146.277 442.723 125.6C442.723 104.923 445.551 91.2452 450.475 83.6827C455.309 76.2605 462.123 72.6 471.423 72.6C480.995 72.6 487.764 76.2151 492.359 83.3631L492.377 83.3911L492.395 83.4188C497.285 90.7541 500.123 104.489 500.123 125.6C500.123 146.711 497.285 160.446 492.395 167.781Z" stroke="url(#paint3_linear)" stroke-width="8"/>
<g filter="url(#filter1_i)">
<path d="M40 219.4V66.7H4V19L95.2 7.00002L98.2 25L95.2 55V219.4H40Z" fill="url(#paint4_linear)"/>
<path d="M240.189 222.4C223.189 222.4 207.889 218.9 194.289 211.9C180.889 204.9 170.289 193.5 162.489 177.7C154.689 161.7 150.789 140.2 150.789 113.2C150.789 86.4 154.689 65.1 162.489 49.3C170.289 33.3 180.889 21.8 194.289 14.8C207.889 7.6 223.189 4 240.189 4C257.389 4 272.689 7.6 286.089 14.8C299.489 22 310.089 33.6 317.889 49.6C325.689 65.4 329.589 86.6 329.589 113.2C329.589 139.8 325.689 161.1 317.889 177.1C310.089 193.1 299.489 204.7 286.089 211.9C272.689 218.9 257.389 222.4 240.189 222.4ZM240.189 170.2C250.989 170.2 259.089 166 264.489 157.6C270.089 149.2 272.889 134.4 272.889 113.2C272.889 92 270.089 77.2 264.489 68.8C259.089 60.4 250.989 56.2 240.189 56.2C229.589 56.2 221.489 60.5 215.889 69.1C210.289 77.7 207.489 92.4 207.489 113.2C207.489 134 210.289 148.7 215.889 157.3C221.489 165.9 229.589 170.2 240.189 170.2Z" fill="url(#paint5_linear)"/>
<path d="M465.423 222.4C448.423 222.4 433.123 218.9 419.523 211.9C406.123 204.9 395.523 193.5 387.723 177.7C379.923 161.7 376.023 140.2 376.023 113.2C376.023 86.4 379.923 65.1 387.723 49.3C395.523 33.3 406.123 21.8 419.523 14.8C433.123 7.6 448.423 4 465.423 4C482.623 4 497.923 7.6 511.323 14.8C524.723 22 535.323 33.6 543.123 49.6C550.923 65.4 554.823 86.6 554.823 113.2C554.823 139.8 550.923 161.1 543.123 177.1C535.323 193.1 524.723 204.7 511.323 211.9C497.923 218.9 482.623 222.4 465.423 222.4ZM465.423 170.2C476.223 170.2 484.323 166 489.723 157.6C495.323 149.2 498.123 134.4 498.123 113.2C498.123 92 495.323 77.2 489.723 68.8C484.323 60.4 476.223 56.2 465.423 56.2C454.823 56.2 446.723 60.5 441.123 69.1C435.523 77.7 432.723 92.4 432.723 113.2C432.723 134 435.523 148.7 441.123 157.3C446.723 165.9 454.823 170.2 465.423 170.2Z" fill="url(#paint6_linear)"/>
</g>
<path d="M418.837 213.234L418.829 213.23C405.102 206.059 394.295 194.4 386.378 178.364L386.375 178.357C378.437 162.074 374.523 140.321 374.523 113.2C374.523 86.2816 378.436 64.7264 386.376 48.6409M418.837 213.234L418.822 13.4743C418.822 13.474 418.823 13.4735 418.824 13.4732M418.837 213.234C432.672 220.355 448.212 223.9 465.423 223.9C482.832 223.9 498.376 220.356 512.018 213.23L512.026 213.225L512.033 213.221C525.756 205.848 536.558 193.991 544.472 177.757C552.409 161.477 556.323 139.925 556.323 113.2C556.323 86.4795 552.41 65.0254 544.471 48.9411C536.557 32.7087 525.755 20.8515 512.033 13.4787C498.388 6.14678 482.838 2.5 465.423 2.5C448.206 2.5 432.661 6.14778 418.824 13.4732M418.837 213.234L418.824 13.4732M386.376 48.6409C386.377 48.6393 386.378 48.6376 386.378 48.636L387.723 49.3L386.375 48.6427C386.375 48.6422 386.376 48.6414 386.376 48.6409ZM386.376 48.6409C394.29 32.4084 405.095 20.6467 418.824 13.4732M38.5 219.4V220.9H40H95.2H96.7V219.4V55.0748L99.6926 25.1493L99.7124 24.9505L99.6796 24.7534L96.6796 6.75342L96.4413 5.32376L95.0043 5.51283L3.80432 17.5128L2.5 17.6844V19V66.7V68.2H4H38.5V219.4ZM193.595 213.23L193.603 213.234C207.438 220.355 222.977 223.9 240.189 223.9C257.597 223.9 273.141 220.356 286.784 213.23L286.791 213.225L286.799 213.221C300.521 205.848 311.324 193.991 319.237 177.757C327.174 161.477 331.089 139.925 331.089 113.2C331.089 86.4795 327.176 65.0254 319.237 48.9411C311.323 32.7087 300.521 20.8515 286.799 13.4787C273.154 6.14678 257.604 2.5 240.189 2.5C222.972 2.5 207.429 6.14744 193.592 13.472C179.862 20.645 169.057 32.4064 161.143 48.6384C153.202 64.7242 149.289 86.2802 149.289 113.2C149.289 140.321 153.203 162.074 161.141 178.357L161.144 178.364C169.061 194.4 179.868 206.059 193.595 213.23ZM263.241 156.768L263.234 156.778L263.227 156.789C258.129 164.719 250.528 168.7 240.189 168.7C230.076 168.7 222.458 164.64 217.146 156.482C211.799 148.271 208.989 133.954 208.989 113.2C208.989 92.4462 211.799 78.1294 217.146 69.9185C222.458 61.7602 230.076 57.7 240.189 57.7C250.528 57.7 258.129 61.6806 263.227 69.6111L263.234 69.6217L263.241 69.632C268.575 77.6328 271.389 92.0335 271.389 113.2C271.389 134.367 268.575 148.767 263.241 156.768ZM488.475 156.768L488.468 156.778L488.462 156.789C483.364 164.719 475.763 168.7 465.423 168.7C455.311 168.7 447.693 164.64 442.38 156.482C437.034 148.271 434.223 133.954 434.223 113.2C434.223 92.4462 437.034 78.1294 442.38 69.9185C447.693 61.7602 455.311 57.7 465.423 57.7C475.763 57.7 483.364 61.6806 488.462 69.6111L488.468 69.6217L488.475 69.632C493.809 77.6328 496.623 92.0335 496.623 113.2C496.623 134.367 493.809 148.767 488.475 156.768Z" stroke="url(#paint7_linear)" stroke-width="3"/>
<path d="M268.5 169.4C268.5 169.4 268.492 170.269 268.854 170.546C269.216 170.822 270 170.546 270 170.546C270 170.546 268.935 170.807 269.073 171.254C269.211 171.702 269.289 171.953 269.427 172.4C269.427 172.4 268.948 171.692 268.5 171.692C268.052 171.692 267.573 172.4 267.573 172.4C267.573 172.4 268.065 171.702 267.927 171.254C267.789 170.807 267 170.546 267 170.546C267 170.546 267.784 170.822 268.146 170.546C268.508 170.269 268.5 169.4 268.5 169.4Z" fill="white"/>
<path d="M264.5 165.4C264.5 165.4 264.487 167.428 265.09 168.074C265.694 168.719 267 168.074 267 168.074C267 168.074 265.224 168.682 265.455 169.726C265.685 170.77 265.815 171.356 266.045 172.4C266.045 172.4 265.246 170.748 264.5 170.748C263.754 170.748 262.955 172.4 262.955 172.4C262.955 172.4 263.776 170.77 263.545 169.726C263.315 168.682 262 168.074 262 168.074C262 168.074 263.306 168.719 263.91 168.074C264.513 167.428 264.5 165.4 264.5 165.4Z" fill="white"/>
<path d="M308.761 149.473C309.686 151.613 308.586 154.146 306.304 155.132C304.023 156.118 301.424 155.182 300.5 153.042C299.575 150.902 302.869 153.446 305.15 152.46C307.431 151.474 307.837 147.333 308.761 149.473Z" fill="white" fill-opacity="0.1"/>
<ellipse cx="403.539" cy="151.514" rx="3" ry="2.5" transform="rotate(-23.3659 403.539 151.514)" fill="white" fill-opacity="0.2"/>
<path d="M413.12 140.698C415.1 145.28 410.639 141.769 406.073 143.742C401.507 145.715 398.565 152.424 396.585 147.841C394.605 143.259 396.702 137.944 401.268 135.972C405.834 133.999 411.14 136.115 413.12 140.698Z" fill="white" fill-opacity="0.3"/>
<circle cx="402.774" cy="145.133" r="4.50309" transform="rotate(-23.3659 402.774 145.133)" fill="white" fill-opacity="0.4"/>
<ellipse cx="202.5" cy="46.9" rx="10.5" ry="8.5" fill="white" fill-opacity="0.6"/>
<circle cx="192.5" cy="34.9" r="5.5" fill="white" fill-opacity="0.7"/>
<path d="M196 21.4C196 21.4 195.91 31.2524 200.013 34.3869C204.116 37.5213 213 34.3869 213 34.3869C213 34.3869 200.926 37.3415 202.493 42.4132C204.061 47.4849 204.939 50.3283 206.507 55.4C206.507 55.4 201.072 47.3737 196 47.3737C190.928 47.3737 185.493 55.4 185.493 55.4C185.493 55.4 191.074 47.4849 189.507 42.4132C187.939 37.3415 179 34.3869 179 34.3869C179 34.3869 187.884 37.5213 191.987 34.3869C196.09 31.2524 196 21.4 196 21.4Z" fill="white"/>
<ellipse cx="19" cy="51.4" rx="5" ry="4" fill="white" fill-opacity="0.6"/>
<circle cx="14" cy="45.4" r="3" fill="white" fill-opacity="0.7"/>
<path d="M15.5 38.4C15.5 38.4 15.455 43.3262 17.5066 44.8934C19.5581 46.4607 24 44.8934 24 44.8934C24 44.8934 17.9631 46.3708 18.7467 48.9066C19.5303 51.4424 19.9697 52.8642 20.7533 55.4C20.7533 55.4 18.0358 51.3869 15.5 51.3869C12.9642 51.3869 10.2467 55.4 10.2467 55.4C10.2467 55.4 13.0369 51.4424 12.2533 48.9066C11.4697 46.3708 7 44.8934 7 44.8934C7 44.8934 11.4419 46.4607 13.4934 44.8934C15.545 43.3262 15.5 38.4 15.5 38.4Z" fill="white"/>
<ellipse cx="85" cy="28.9" rx="8" ry="6.5" fill="white" fill-opacity="0.6"/>
<circle cx="77" cy="19.4" r="5" fill="white" fill-opacity="0.7"/>
<path d="M79.5 8.40002C79.5 8.40002 79.4286 16.224 82.6869 18.7131C85.9452 21.2022 93 18.7131 93 18.7131C93 18.7131 83.412 21.0594 84.6565 25.0869C85.9011 29.1145 86.5989 31.3725 87.8435 35.4C87.8435 35.4 83.5275 29.0262 79.5 29.0262C75.4725 29.0262 71.1565 35.4 71.1565 35.4C71.1565 35.4 75.588 29.1145 74.3435 25.0869C73.0989 21.0594 66 18.7131 66 18.7131C66 18.7131 73.0548 21.2022 76.3131 18.7131C79.5714 16.224 79.5 8.40002 79.5 8.40002Z" fill="white"/>
<path d="M288.526 68.078C296.518 58.3854 295.521 44.3652 286.3 36.7632C277.08 29.1612 268.118 23.3228 260.127 33.0155C252.136 42.7081 273.432 32.9343 283.636 45.7172C295.392 61.0624 280.535 77.7707 288.526 68.078Z" fill="white" fill-opacity="0.4"/>
<path d="M290.103 49.4898C292.973 46.0083 285.901 38.7263 281.219 34.8663C276.537 31.0062 271.136 28.0041 268.265 31.4856C265.395 34.9671 274.988 33.0067 280.488 39.1109C285.905 39.239 288.294 45.5465 290.103 49.4898Z" fill="white"/>
<path d="M458.206 32.9221C450.912 22.6946 437.112 20.0286 427.383 26.9675C417.653 33.9064 409.694 41.0516 416.988 51.2791C424.282 61.5067 420.353 38.4064 435.342 31.8583C453.207 24.4746 465.501 43.1497 458.206 32.9221Z" fill="white" fill-opacity="0.4"/>
<path d="M440.659 26.5878C438.039 22.9142 429.175 27.8609 424.235 31.3843C419.294 34.9076 414.997 39.3477 417.617 43.0213C420.237 46.6949 420.826 36.9216 428.146 33.1889C429.671 27.9889 436.382 27.314 440.659 26.5878Z" fill="white"/>
<path d="M85.8374 186.423C90.4049 186.423 85.5603 166.219 85.5603 159.463C85.5603 152.708 87.4488 139.4 82.8812 139.4C78.3137 139.4 83.6581 152.473 82.4322 161.521C82.4265 183.241 86.0648 166.27 85.8374 186.423Z" fill="white" fill-opacity="0.4"/>
<g filter="url(#filter2_f)">
<path d="M84.702 173.691C86.8661 173.691 84.5708 167.466 84.5708 165.385C84.5708 163.303 85.4655 159.203 83.3014 159.203C81.1374 159.203 83.6695 163.231 83.0887 166.019C83.086 172.711 84.8098 167.482 84.702 173.691Z" fill="white"/>
</g>
<path d="M69.4294 205.156C72.0511 194.038 63.8341 204.548 62.0162 204.119C60.1983 203.691 57.7014 198.25 55.0798 209.367C52.4581 220.484 59.0435 208.306 60.7745 211.864C66.6155 213.256 64.1373 203.323 69.4294 205.156Z" fill="white" fill-opacity="0.4"/>
<g filter="url(#filter3_f)">
<path d="M64.8516 207.139C66.3938 200.6 63.0854 207.141 62.526 207.01C61.9667 206.878 61.5025 203.914 59.9603 210.454C58.4182 216.993 61.3051 209.597 61.6403 211.528C63.4366 211.961 63.2599 206.42 64.8516 207.139Z" fill="white"/>
</g>
<path d="M527.837 140.423C532.405 140.423 527.56 120.219 527.56 113.463C527.56 106.708 529.449 93.4 524.881 93.4C520.314 93.4 525.658 106.473 524.432 115.521C524.426 137.241 528.065 120.27 527.837 140.423Z" fill="white" fill-opacity="0.4"/>
<g filter="url(#filter4_f)">
<path d="M526.702 127.691C528.866 127.691 526.571 121.466 526.571 119.385C526.571 117.303 527.465 113.203 525.301 113.203C523.137 113.203 525.67 117.231 525.089 120.019C525.086 126.711 526.81 121.482 526.702 127.691Z" fill="white"/>
</g>
<g filter="url(#filter5_f)">
<path d="M193.01 173.538C193.01 193.897 211.338 210.4 233.945 210.4C256.553 210.4 282 210.054 282 189.696C282 169.338 257.337 201.922 227.058 196.457C191.432 189.389 193.01 153.18 193.01 173.538Z" fill="white" fill-opacity="0.46"/>
</g>
<path d="M196.01 176.538C196.01 196.897 214.193 213.4 236.622 213.4C259.052 213.4 279 211.462 279 191.104C279 170.746 259.829 204.922 229.79 199.457C194.444 192.389 196.01 156.18 196.01 176.538Z" fill="white" fill-opacity="0.4"/>
<path d="M215 201.645C215 208.659 233.894 210.4 245.257 210.4C256.62 210.4 268 208.66 268 201.645C268 194.63 256.475 206.468 241.256 204.586C233.276 209.79 222.31 204.586 215 201.645Z" fill="white"/>
<g filter="url(#filter6_f)">
<path d="M419.01 173.538C419.01 193.897 437.338 210.4 459.945 210.4C482.553 210.4 508 210.054 508 189.696C508 169.338 483.337 201.922 453.058 196.457C417.432 189.389 419.01 153.18 419.01 173.538Z" fill="white" fill-opacity="0.46"/>
</g>
<path d="M422.01 176.538C422.01 196.897 440.193 213.4 462.622 213.4C485.052 213.4 505 211.462 505 191.104C505 170.746 485.829 204.922 455.79 199.457C420.444 192.389 422.01 156.18 422.01 176.538Z" fill="white" fill-opacity="0.4"/>
<path d="M441 201.645C441 208.659 459.894 210.4 471.257 210.4C482.62 210.4 494 208.66 494 201.645C494 194.63 482.475 206.468 467.256 204.586C459.276 209.79 448.31 204.586 441 201.645Z" fill="white"/>
<defs>
<filter id="filter0_i" x="0.833984" y="0.489807" width="567.989" height="245.31" filterUnits="userSpaceOnUse" color-interpolation-filters="sRGB">
<feFlood flood-opacity="0" result="BackgroundImageFix"/>
<feBlend mode="normal" in="SourceGraphic" in2="BackgroundImageFix" result="shape"/>
<feColorMatrix in="SourceAlpha" type="matrix" values="0 0 0 0 0 0 0 0 0 0 0 0 0 0 0 0 0 0 127 0" result="hardAlpha"/>
<feOffset dy="6"/>
<feGaussianBlur stdDeviation="1.5"/>
<feComposite in2="hardAlpha" operator="arithmetic" k2="-1" k3="1"/>
<feColorMatrix type="matrix" values="0 0 0 0 1 0 0 0 0 1 0 0 0 0 0 0 0 0 1 0"/>
<feBlend mode="normal" in2="shape" result="effect1_innerShadow"/>
</filter>
<filter id="filter1_i" x="1" y="1" width="556.823" height="232.4" filterUnits="userSpaceOnUse" color-interpolation-filters="sRGB">
<feFlood flood-opacity="0" result="BackgroundImageFix"/>
<feBlend mode="normal" in="SourceGraphic" in2="BackgroundImageFix" result="shape"/>
<feColorMatrix in="SourceAlpha" type="matrix" values="0 0 0 0 0 0 0 0 0 0 0 0 0 0 0 0 0 0 127 0" result="hardAlpha"/>
<feOffset dy="11"/>
<feGaussianBlur stdDeviation="4"/>
<feComposite in2="hardAlpha" operator="arithmetic" k2="-1" k3="1"/>
<feColorMatrix type="matrix" values="0 0 0 0 1 0 0 0 0 1 0 0 0 0 0 0 0 0 1 0"/>
<feBlend mode="normal" in2="shape" result="effect1_innerShadow"/>
</filter>
<filter id="filter2_f" x="81.4102" y="158.203" width="5.22078" height="16.488" filterUnits="userSpaceOnUse" color-interpolation-filters="sRGB">
<feFlood flood-opacity="0" result="BackgroundImageFix"/>
<feBlend mode="normal" in="SourceGraphic" in2="BackgroundImageFix" result="shape"/>
<feGaussianBlur stdDeviation="0.5" result="effect1_foregroundBlur"/>
</filter>
<filter id="filter3_f" x="58.3252" y="202.414" width="8.1884" height="12.6511" filterUnits="userSpaceOnUse" color-interpolation-filters="sRGB">
<feFlood flood-opacity="0" result="BackgroundImageFix"/>
<feBlend mode="normal" in="SourceGraphic" in2="BackgroundImageFix" result="shape"/>
<feGaussianBlur stdDeviation="0.5" result="effect1_foregroundBlur"/>
</filter>
<filter id="filter4_f" x="523.41" y="112.203" width="5.22078" height="16.488" filterUnits="userSpaceOnUse" color-interpolation-filters="sRGB">
<feFlood flood-opacity="0" result="BackgroundImageFix"/>
<feBlend mode="normal" in="SourceGraphic" in2="BackgroundImageFix" result="shape"/>
<feGaussianBlur stdDeviation="0.5" result="effect1_foregroundBlur"/>
</filter>
<filter id="filter5_f" x="192" y="166.4" width="91" height="45" filterUnits="userSpaceOnUse" color-interpolation-filters="sRGB">
<feFlood flood-opacity="0" result="BackgroundImageFix"/>
<feBlend mode="normal" in="SourceGraphic" in2="BackgroundImageFix" result="shape"/>
<feGaussianBlur stdDeviation="0.5" result="effect1_foregroundBlur"/>
</filter>
<filter id="filter6_f" x="418" y="166.4" width="91" height="45" filterUnits="userSpaceOnUse" color-interpolation-filters="sRGB">
<feFlood flood-opacity="0" result="BackgroundImageFix"/>
<feBlend mode="normal" in="SourceGraphic" in2="BackgroundImageFix" result="shape"/>
<feGaussianBlur stdDeviation="0.5" result="effect1_foregroundBlur"/>
</filter>
<linearGradient id="paint0_linear" x1="263.5" y1="176.9" x2="284.912" y2="234.8" gradientUnits="userSpaceOnUse">
<stop stop-color="#FFF501"/>
<stop offset="0.880208" stop-color="#FFD600"/>
</linearGradient>
<linearGradient id="paint1_linear" x1="263.5" y1="176.9" x2="284.912" y2="234.8" gradientUnits="userSpaceOnUse">
<stop stop-color="#FFF501"/>
<stop offset="0.880208" stop-color="#FFD600"/>
</linearGradient>
<linearGradient id="paint2_linear" x1="263.5" y1="176.9" x2="284.912" y2="234.8" gradientUnits="userSpaceOnUse">
<stop stop-color="#FFF501"/>
<stop offset="0.880208" stop-color="#FFD600"/>
</linearGradient>
<linearGradient id="paint3_linear" x1="74" y1="102.4" x2="285.412" y2="234.8" gradientUnits="userSpaceOnUse">
<stop stop-color="#EAC504"/>
<stop offset="0.494792" stop-color="#FF993C"/>
<stop offset="1" stop-color="#FFDE2E"/>
</linearGradient>
<linearGradient id="paint4_linear" x1="235.5" y1="6.40003" x2="281" y2="219.4" gradientUnits="userSpaceOnUse">
<stop stop-color="#FFE600"/>
<stop offset="0.197917" stop-color="#FFEE56"/>
<stop offset="0.369792" stop-color="#FFDD4F"/>
<stop offset="0.479167" stop-color="#FFB23E"/>
<stop offset="0.583333" stop-color="#FFD600"/>
<stop offset="0.979546" stop-color="#FEB700"/>
</linearGradient>
<linearGradient id="paint5_linear" x1="235.5" y1="6.40003" x2="281" y2="219.4" gradientUnits="userSpaceOnUse">
<stop stop-color="#FFE600"/>
<stop offset="0.197917" stop-color="#FFEE56"/>
<stop offset="0.369792" stop-color="#FFDD4F"/>
<stop offset="0.479167" stop-color="#FFB23E"/>
<stop offset="0.583333" stop-color="#FFD600"/>
<stop offset="0.979546" stop-color="#FEB700"/>
</linearGradient>
<linearGradient id="paint6_linear" x1="235.5" y1="6.40003" x2="281" y2="219.4" gradientUnits="userSpaceOnUse">
<stop stop-color="#FFE600"/>
<stop offset="0.197917" stop-color="#FFEE56"/>
<stop offset="0.369792" stop-color="#FFDD4F"/>
<stop offset="0.479167" stop-color="#FFB23E"/>
<stop offset="0.583333" stop-color="#FFD600"/>
<stop offset="0.979546" stop-color="#FEB700"/>
</linearGradient>
<linearGradient id="paint7_linear" x1="174.5" y1="101.4" x2="281" y2="293.4" gradientUnits="userSpaceOnUse">
<stop stop-color="#FFF500"/>
<stop offset="1" stop-color="#FFF500"/>
</linearGradient>
</defs>
</svg>
