<svg width="92" height="119" viewBox="0 0 92 119" fill="none" xmlns="http://www.w3.org/2000/svg">
<g filter="url(#filter0_d)">
<g filter="url(#filter1_i)">
<path d="M25.04 58.848C20.816 58.848 17.36 58.144 14.672 56.736C11.984 55.264 10 53.344 8.72 50.976C7.44 48.608 6.8 45.952 6.8 43.008C6.8 40.064 7.44 37.408 8.72 35.04C10 32.672 11.984 30.784 14.672 29.376C17.36 27.904 20.816 27.168 25.04 27.168C29.2 27.168 32.624 27.904 35.312 29.376C38 30.784 39.984 32.672 41.264 35.04C42.608 37.408 43.28 40.064 43.28 43.008C43.28 45.952 42.608 48.608 41.264 50.976C39.984 53.344 38 55.264 35.312 56.736C32.624 58.144 29.2 58.848 25.04 58.848ZM12.56 96V90.24L45.104 55.968L62.864 28.128H80.72V33.888L50.192 65.472L30.416 96H12.56ZM25.04 48.288C26.576 48.288 27.696 48 28.4 47.424C29.168 46.784 29.648 46.048 29.84 45.216C30.096 44.384 30.224 43.648 30.224 43.008C30.224 42.368 30.096 41.632 29.84 40.8C29.648 39.968 29.168 39.264 28.4 38.688C27.696 38.048 26.576 37.728 25.04 37.728C23.504 37.728 22.352 38.048 21.584 38.688C20.88 39.264 20.4 39.968 20.144 40.8C19.952 41.632 19.856 42.368 19.856 43.008C19.856 43.648 19.952 44.384 20.144 45.216C20.4 46.048 20.88 46.784 21.584 47.424C22.352 48 23.504 48.288 25.04 48.288ZM67.28 96.96C63.056 96.96 59.6 96.256 56.912 94.848C54.224 93.376 52.24 91.456 50.96 89.088C49.68 86.656 49.04 84 49.04 81.12C49.04 78.176 49.68 75.52 50.96 73.152C52.24 70.784 54.224 68.896 56.912 67.488C59.6 66.016 63.056 65.28 67.28 65.28C71.44 65.28 74.864 66.016 77.552 67.488C80.24 68.896 82.224 70.784 83.504 73.152C84.848 75.52 85.52 78.176 85.52 81.12C85.52 84 84.848 86.656 83.504 89.088C82.224 91.456 80.24 93.376 77.552 94.848C74.864 96.256 71.44 96.96 67.28 96.96ZM67.28 86.4C68.816 86.4 69.936 86.112 70.64 85.536C71.408 84.896 71.888 84.16 72.08 83.328C72.336 82.496 72.464 81.76 72.464 81.12C72.464 80.48 72.336 79.744 72.08 78.912C71.888 78.08 71.408 77.376 70.64 76.8C69.936 76.16 68.816 75.84 67.28 75.84C65.744 75.84 64.592 76.16 63.824 76.8C63.12 77.376 62.64 78.08 62.384 78.912C62.192 79.744 62.096 80.48 62.096 81.12C62.096 81.76 62.192 82.496 62.384 83.328C62.64 84.16 63.12 84.896 63.824 85.536C64.592 86.112 65.744 86.4 67.28 86.4Z" fill="url(#paint0_linear)"/>
</g>
<path d="M14.672 56.736L13.7114 58.4902L13.7276 58.4991L13.744 58.5077L14.672 56.736ZM8.72 50.976L6.96059 51.927H6.96059L8.72 50.976ZM8.72 35.04L6.96059 34.089L8.72 35.04ZM14.672 29.376L15.6 31.1477L15.6164 31.1391L15.6326 31.1302L14.672 29.376ZM35.312 29.376L34.3514 31.1302L34.3676 31.1391L34.384 31.1477L35.312 29.376ZM41.264 35.04L39.5046 35.991L39.5144 36.0092L39.5246 36.0272L41.264 35.04ZM41.264 50.976L39.5246 49.9888L39.5144 50.0068L39.5046 50.025L41.264 50.976ZM35.312 56.736L36.24 58.5077L36.2564 58.4991L36.2726 58.4902L35.312 56.736ZM12.56 96H10.56V98H12.56V96ZM12.56 90.24L11.1097 88.8628L10.56 89.4417V90.24H12.56ZM45.104 55.968L46.5543 57.3452L46.6867 57.2057L46.7901 57.0436L45.104 55.968ZM62.864 28.128V26.128H61.7676L61.1779 27.0524L62.864 28.128ZM80.72 28.128H82.72V26.128H80.72V28.128ZM80.72 33.888L82.1581 35.278L82.72 34.6966V33.888H80.72ZM50.192 65.472L48.754 64.082L48.619 64.2216L48.5134 64.3846L50.192 65.472ZM30.416 96V98H31.5034L32.0946 97.0874L30.416 96ZM28.4 47.424L29.6665 48.9719L29.6735 48.9662L29.6804 48.9604L28.4 47.424ZM29.84 45.216L27.9284 44.6278L27.9073 44.6964L27.8912 44.7663L29.84 45.216ZM29.84 40.8L27.8912 41.2497L27.9073 41.3196L27.9284 41.3882L29.84 40.8ZM28.4 38.688L27.0547 40.1679L27.1245 40.2314L27.2 40.288L28.4 38.688ZM21.584 38.688L22.8505 40.2359L22.8575 40.2302L22.8644 40.2244L21.584 38.688ZM20.144 40.8L18.2324 40.2118L18.2113 40.2804L18.1952 40.3503L20.144 40.8ZM20.144 45.216L18.1952 45.6657L18.2113 45.7356L18.2324 45.8042L20.144 45.216ZM21.584 47.424L20.2387 48.9039L20.3085 48.9674L20.384 49.024L21.584 47.424ZM56.912 94.848L55.9514 96.6022L55.9676 96.6111L55.984 96.6197L56.912 94.848ZM50.96 89.088L49.1902 90.0195L49.1953 90.0293L49.2006 90.039L50.96 89.088ZM50.96 73.152L52.7194 74.103L50.96 73.152ZM56.912 67.488L57.84 69.2597L57.8564 69.2511L57.8726 69.2422L56.912 67.488ZM77.552 67.488L76.5914 69.2422L76.6076 69.2511L76.624 69.2597L77.552 67.488ZM83.504 73.152L81.7446 74.103L81.7544 74.1212L81.7646 74.1392L83.504 73.152ZM83.504 89.088L81.7535 88.1206L81.749 88.1288L81.7446 88.137L83.504 89.088ZM77.552 94.848L78.48 96.6197L78.4964 96.6111L78.5126 96.6022L77.552 94.848ZM70.64 85.536L71.9065 87.0839L71.9135 87.0782L71.9204 87.0724L70.64 85.536ZM72.08 83.328L70.1684 82.7398L70.1473 82.8084L70.1312 82.8783L72.08 83.328ZM72.08 78.912L70.1312 79.3617L70.1473 79.4316L70.1684 79.5002L72.08 78.912ZM70.64 76.8L69.2947 78.2799L69.3645 78.3434L69.44 78.4L70.64 76.8ZM63.824 76.8L65.0905 78.3479L65.0975 78.3422L65.1044 78.3364L63.824 76.8ZM62.384 78.912L60.4724 78.3238L60.4513 78.3924L60.4352 78.4623L62.384 78.912ZM62.384 83.328L60.4352 83.7777L60.4513 83.8476L60.4724 83.9162L62.384 83.328ZM63.824 85.536L62.4787 87.0159L62.5485 87.0794L62.624 87.136L63.824 85.536ZM25.04 56.848C21.0195 56.848 17.9117 56.1752 15.6 54.9643L13.744 58.5077C16.8083 60.1128 20.6125 60.848 25.04 60.848V56.848ZM15.6326 54.9818C13.2346 53.6686 11.5517 52.0086 10.4794 50.025L6.96059 51.927C8.44835 54.6794 10.7334 56.8594 13.7114 58.4902L15.6326 54.9818ZM10.4794 50.025C9.37179 47.9759 8.8 45.6518 8.8 43.008H4.8C4.8 46.2522 5.50821 49.2401 6.96059 51.927L10.4794 50.025ZM8.8 43.008C8.8 40.3642 9.37179 38.0401 10.4794 35.991L6.96059 34.089C5.50821 36.7759 4.8 39.7638 4.8 43.008H8.8ZM10.4794 35.991C11.5466 34.0167 13.2182 32.3953 15.6 31.1477L13.744 27.6043C10.7498 29.1727 8.45337 31.3273 6.96059 34.089L10.4794 35.991ZM15.6326 31.1302C17.9358 29.869 21.0309 29.168 25.04 29.168V25.168C20.6011 25.168 16.7842 25.939 13.7114 27.6218L15.6326 31.1302ZM25.04 29.168C28.979 29.168 32.0444 29.8668 34.3514 31.1302L36.2726 27.6218C33.2036 25.9412 29.421 25.168 25.04 25.168V29.168ZM34.384 31.1477C36.7658 32.3953 38.4374 34.0167 39.5046 35.991L43.0234 34.089C41.5306 31.3273 39.2342 29.1727 36.24 27.6043L34.384 31.1477ZM39.5246 36.0272C40.6841 38.07 41.28 40.3811 41.28 43.008H45.28C45.28 39.7469 44.532 36.746 43.0034 34.0528L39.5246 36.0272ZM41.28 43.008C41.28 45.6349 40.6841 47.946 39.5246 49.9888L43.0034 51.9632C44.532 49.27 45.28 46.2691 45.28 43.008H41.28ZM39.5046 50.025C38.4324 52.0086 36.7494 53.6686 34.3514 54.9818L36.2726 58.4902C39.2506 56.8594 41.5357 54.6794 43.0234 51.927L39.5046 50.025ZM34.384 54.9643C32.0686 56.1772 28.9907 56.848 25.04 56.848V60.848C29.4094 60.848 33.1794 60.1108 36.24 58.5077L34.384 54.9643ZM14.56 96V90.24H10.56V96H14.56ZM14.0103 91.6172L46.5543 57.3452L43.6537 54.5908L11.1097 88.8628L14.0103 91.6172ZM46.7901 57.0436L64.5501 29.2036L61.1779 27.0524L43.4179 54.8924L46.7901 57.0436ZM62.864 30.128H80.72V26.128H62.864V30.128ZM78.72 28.128V33.888H82.72V28.128H78.72ZM79.282 32.498L48.754 64.082L51.6301 66.862L82.1581 35.278L79.282 32.498ZM48.5134 64.3846L28.7374 94.9126L32.0946 97.0874L51.8706 66.5594L48.5134 64.3846ZM30.416 94H12.56V98H30.416V94ZM25.04 50.288C26.7469 50.288 28.4311 49.9827 29.6665 48.9719L27.1335 45.8761C26.9609 46.0173 26.4051 46.288 25.04 46.288V50.288ZM29.6804 48.9604C30.7244 48.0904 31.4825 46.9929 31.7888 45.6657L27.8912 44.7663C27.8135 45.1031 27.6116 45.4776 27.1196 45.8876L29.6804 48.9604ZM31.7516 45.8042C32.0466 44.8452 32.224 43.9045 32.224 43.008H28.224C28.224 43.3915 28.1454 43.9227 27.9284 44.6278L31.7516 45.8042ZM32.224 43.008C32.224 42.1115 32.0466 41.1707 31.7516 40.2118L27.9284 41.3882C28.1454 42.0932 28.224 42.6245 28.224 43.008H32.224ZM31.7888 40.3503C31.4774 39.0011 30.6955 37.9096 29.6 37.088L27.2 40.288C27.6405 40.6184 27.8186 40.9349 27.8912 41.2497L31.7888 40.3503ZM29.7453 37.2081C28.5042 36.0798 26.7845 35.728 25.04 35.728V39.728C26.3675 39.728 26.8878 40.0162 27.0547 40.1679L29.7453 37.2081ZM25.04 35.728C23.2755 35.728 21.5798 36.0881 20.3036 37.1516L22.8644 40.2244C23.1242 40.0079 23.7325 39.728 25.04 39.728V35.728ZM20.3175 37.1401C19.3232 37.9537 18.6097 38.9859 18.2324 40.2118L22.0556 41.3882C22.1903 40.9501 22.4369 40.5743 22.8505 40.2359L20.3175 37.1401ZM18.1952 40.3503C17.9797 41.2841 17.856 42.176 17.856 43.008H21.856C21.856 42.56 21.9243 41.9799 22.0928 41.2497L18.1952 40.3503ZM17.856 43.008C17.856 43.84 17.9797 44.7319 18.1952 45.6657L22.0928 44.7663C21.9243 44.0361 21.856 43.456 21.856 43.008H17.856ZM18.2324 45.8042C18.6035 47.0102 19.2949 48.0459 20.2387 48.9039L22.9293 45.9441C22.4652 45.5221 22.1965 45.0858 22.0556 44.6278L18.2324 45.8042ZM20.384 49.024C21.6508 49.9741 23.3117 50.288 25.04 50.288V46.288C23.6963 46.288 23.0532 46.0259 22.784 45.824L20.384 49.024ZM67.28 94.96C63.2595 94.96 60.1517 94.2872 57.84 93.0763L55.984 96.6197C59.0483 98.2248 62.8525 98.96 67.28 98.96V94.96ZM57.8726 93.0938C55.4746 91.7806 53.7917 90.1206 52.7194 88.137L49.2006 90.039C50.6884 92.7914 52.9734 94.9714 55.9514 96.6022L57.8726 93.0938ZM52.7298 88.1565C51.6083 86.0256 51.04 83.6915 51.04 81.12H47.04C47.04 84.3085 47.7517 87.2864 49.1902 90.0195L52.7298 88.1565ZM51.04 81.12C51.04 78.4762 51.6118 76.1521 52.7194 74.103L49.2006 72.201C47.7482 74.8879 47.04 77.8758 47.04 81.12H51.04ZM52.7194 74.103C53.7866 72.1287 55.4582 70.5073 57.84 69.2597L55.984 65.7163C52.9898 67.2847 50.6934 69.4393 49.2006 72.201L52.7194 74.103ZM57.8726 69.2422C60.1758 67.981 63.2709 67.28 67.28 67.28V63.28C62.8411 63.28 59.0243 64.051 55.9514 65.7338L57.8726 69.2422ZM67.28 67.28C71.219 67.28 74.2844 67.9788 76.5914 69.2422L78.5126 65.7338C75.4436 64.0532 71.661 63.28 67.28 63.28V67.28ZM76.624 69.2597C79.0058 70.5073 80.6774 72.1287 81.7446 74.103L85.2634 72.201C83.7706 69.4393 81.4742 67.2847 78.48 65.7163L76.624 69.2597ZM81.7646 74.1392C82.9241 76.182 83.52 78.4931 83.52 81.12H87.52C87.52 77.8589 86.772 74.858 85.2434 72.1648L81.7646 74.1392ZM83.52 81.12C83.52 83.6745 82.9278 85.9958 81.7535 88.1206L85.2545 90.0554C86.7682 87.3162 87.52 84.3255 87.52 81.12H83.52ZM81.7446 88.137C80.6724 90.1206 78.9894 91.7806 76.5914 93.0938L78.5126 96.6022C81.4906 94.9714 83.7757 92.7914 85.2634 90.039L81.7446 88.137ZM76.624 93.0763C74.3086 94.2892 71.2307 94.96 67.28 94.96V98.96C71.6494 98.96 75.4194 98.2228 78.48 96.6197L76.624 93.0763ZM67.28 88.4C68.9869 88.4 70.6711 88.0947 71.9065 87.0839L69.3735 83.9881C69.2009 84.1293 68.6451 84.4 67.28 84.4V88.4ZM71.9204 87.0724C72.9644 86.2024 73.7225 85.1049 74.0288 83.7777L70.1312 82.8783C70.0535 83.2151 69.8516 83.5896 69.3596 83.9996L71.9204 87.0724ZM73.9916 83.9162C74.2866 82.9573 74.464 82.0165 74.464 81.12H70.464C70.464 81.5035 70.3854 82.0347 70.1684 82.7398L73.9916 83.9162ZM74.464 81.12C74.464 80.2235 74.2866 79.2827 73.9916 78.3238L70.1684 79.5002C70.3854 80.2053 70.464 80.7365 70.464 81.12H74.464ZM74.0288 78.4623C73.7175 77.1131 72.9355 76.0216 71.84 75.2L69.44 78.4C69.8805 78.7304 70.0586 79.0469 70.1312 79.3617L74.0288 78.4623ZM71.9854 75.3201C70.7442 74.1918 69.0245 73.84 67.28 73.84V77.84C68.6075 77.84 69.1278 78.1282 69.2947 78.2799L71.9854 75.3201ZM67.28 73.84C65.5155 73.84 63.8198 74.2001 62.5436 75.2636L65.1044 78.3364C65.3642 78.1199 65.9725 77.84 67.28 77.84V73.84ZM62.5575 75.2521C61.5632 76.0657 60.8497 77.0979 60.4724 78.3238L64.2956 79.5002C64.4304 79.0621 64.6769 78.6863 65.0905 78.3479L62.5575 75.2521ZM60.4352 78.4623C60.2197 79.3961 60.096 80.288 60.096 81.12H64.096C64.096 80.672 64.1643 80.0919 64.3328 79.3617L60.4352 78.4623ZM60.096 81.12C60.096 81.952 60.2197 82.8439 60.4352 83.7777L64.3328 82.8783C64.1643 82.1481 64.096 81.568 64.096 81.12H60.096ZM60.4724 83.9162C60.8435 85.1222 61.5349 86.1579 62.4787 87.0159L65.1693 84.0561C64.7052 83.6341 64.4365 83.1978 64.2956 82.7398L60.4724 83.9162ZM62.624 87.136C63.8908 88.0861 65.5517 88.4 67.28 88.4V84.4C65.9363 84.4 65.2932 84.1379 65.024 83.936L62.624 87.136Z" fill="#CD0256"/>
<path d="M12 40C12 40 11.9947 40.5796 12.2361 40.7639C12.4774 40.9483 13 40.7639 13 40.7639C13 40.7639 12.2898 40.9377 12.382 41.2361C12.4742 41.5344 12.5258 41.7017 12.618 42C12.618 42 12.2983 41.5279 12 41.5279C11.7017 41.5279 11.382 42 11.382 42C11.382 42 11.7102 41.5344 11.618 41.2361C11.5258 40.9377 11 40.7639 11 40.7639C11 40.7639 11.5226 40.9483 11.7639 40.7639C12.0053 40.5796 12 40 12 40Z" fill="white"/>
<path d="M16.5 36C16.5 36 16.4921 36.8693 16.8541 37.1459C17.2161 37.4225 18 37.1459 18 37.1459C18 37.1459 16.9347 37.4066 17.0729 37.8541C17.2112 38.3016 17.2888 38.5525 17.4271 39C17.4271 39 16.9475 38.2918 16.5 38.2918C16.0525 38.2918 15.5729 39 15.5729 39C15.5729 39 16.0653 38.3016 15.9271 37.8541C15.7888 37.4066 15 37.1459 15 37.1459C15 37.1459 15.7839 37.4225 16.1459 37.1459C16.5079 36.8693 16.5 36 16.5 36Z" fill="white"/>
<path d="M12.5 32C12.5 32 12.4868 34.0284 13.0902 34.6738C13.6936 35.3191 15 34.6738 15 34.6738C15 34.6738 13.2244 35.2821 13.4549 36.3262C13.6854 37.3704 13.8146 37.9558 14.0451 39C14.0451 39 13.2458 37.3475 12.5 37.3475C11.7542 37.3475 10.9549 39 10.9549 39C10.9549 39 11.7756 37.3704 11.5451 36.3262C11.3146 35.2821 10 34.6738 10 34.6738C10 34.6738 11.3064 35.3191 11.9098 34.6738C12.5132 34.0284 12.5 32 12.5 32Z" fill="white"/>
<path d="M21.5 92C21.5 92 21.4921 92.8693 21.8541 93.1459C22.2161 93.4225 23 93.1459 23 93.1459C23 93.1459 21.9347 93.4066 22.0729 93.8541C22.2112 94.3016 22.2888 94.5525 22.4271 95C22.4271 95 21.9475 94.2918 21.5 94.2918C21.0525 94.2918 20.5729 95 20.5729 95C20.5729 95 21.0653 94.3016 20.9271 93.8541C20.7888 93.4066 20 93.1459 20 93.1459C20 93.1459 20.7839 93.4225 21.1459 93.1459C21.5079 92.8693 21.5 92 21.5 92Z" fill="white"/>
<path d="M17.5 88C17.5 88 17.4868 90.0284 18.0902 90.6738C18.6936 91.3191 20 90.6738 20 90.6738C20 90.6738 18.2244 91.2821 18.4549 92.3262C18.6854 93.3704 18.8146 93.9558 19.0451 95C19.0451 95 18.2458 93.3475 17.5 93.3475C16.7542 93.3475 15.9549 95 15.9549 95C15.9549 95 16.7756 93.3704 16.5451 92.3262C16.3146 91.2821 15 90.6738 15 90.6738C15 90.6738 16.3064 91.3191 16.9098 90.6738C17.5132 90.0284 17.5 88 17.5 88Z" fill="white"/>
<g filter="url(#filter2_f)">
<path d="M68.1413 95.9968C75.243 95.9968 81 90.4369 81 83.5784C81 76.7199 80.8794 69 73.7778 69C66.6761 69 78.0424 76.4821 76.1363 85.6677C73.6705 96.4758 61.0396 95.9968 68.1413 95.9968Z" fill="white" fill-opacity="0.46"/>
</g>
<path d="M69.1413 94.9969C76.243 94.9969 82 89.5202 82 82.7644C82 76.0086 81.3239 70 74.2222 70C67.1206 70 79.0424 75.7744 77.1363 84.8224C74.6705 95.4687 62.0396 94.9969 69.1413 94.9969Z" fill="white" fill-opacity="0.4"/>
<path d="M77.8162 89C80.3671 89 81 83.2963 81 79.8659C81 76.4355 80.3671 73 77.8163 73C75.2655 73 79.5703 76.4793 78.8857 81.0736C80.7781 83.4828 78.8859 86.7931 77.8162 89Z" fill="white"/>
<path d="M38.6492 50.8229C43.1668 45.3434 42.6034 37.4175 37.3907 33.1199C32.1781 28.8223 27.1119 25.5217 22.5943 31.0012C18.0767 36.4807 30.116 30.9553 35.8847 38.1818C42.5306 46.8568 34.1316 56.3024 38.6492 50.8229Z" fill="white" fill-opacity="0.4"/>
<path d="M30.4205 81.6705C33.6503 84.9002 44.5106 67.1886 49.2877 62.4116C54.0647 57.6345 64.8099 49.56 61.5802 46.3302C58.3504 43.1005 52.8853 56.1238 45.6205 61.6548C30.2587 77.0086 44.8313 67.5813 30.4205 81.6705Z" fill="white" fill-opacity="0.4"/>
<g filter="url(#filter3_f)">
<path d="M38.6206 71.8652C40.1508 73.3954 42.9294 67.3707 44.4013 65.8989C45.8731 64.427 49.405 62.1604 47.8748 60.6302C46.3446 59.1 45.2869 63.7387 42.9049 65.2993C38.1711 70.0292 43.0873 67.5508 38.6206 71.8652Z" fill="white"/>
</g>
<path d="M39.5403 40.3145C41.1629 38.3463 37.1647 34.2296 34.5179 32.0474C31.8711 29.8653 28.8177 28.1681 27.1951 30.1363C25.5724 32.1044 30.9954 30.9962 34.1047 34.447C37.1674 34.5194 38.5179 38.0852 39.5403 40.3145Z" fill="white"/>
<path d="M61.7614 72.0728C62.6859 74.2126 61.5859 76.7463 59.3044 77.732C57.0229 78.7177 54.424 77.782 53.4995 75.6422C52.575 73.5023 55.8685 76.0456 58.15 75.0599C60.4314 74.0743 60.837 69.9329 61.7614 72.0728Z" fill="white" fill-opacity="0.1"/>
<ellipse cx="56.5394" cy="75.114" rx="3" ry="2.5" transform="rotate(-23.3659 56.5394 75.114)" fill="white" fill-opacity="0.2"/>
<path d="M60.9361 72.6854C61.8155 74.7208 59.8342 73.1614 57.8062 74.0376C55.7783 74.9137 54.4715 77.8936 53.5922 75.8582C52.7128 73.8228 53.644 71.4626 55.672 70.5864C57.6999 69.7103 60.0568 70.65 60.9361 72.6854Z" fill="white" fill-opacity="0.3"/>
<circle cx="56.3411" cy="74.6551" r="2" transform="rotate(-23.3659 56.3411 74.6551)" fill="white" fill-opacity="0.4"/>
<ellipse cx="70.5" cy="34" rx="2.5" ry="2" fill="white" fill-opacity="0.6"/>
<circle cx="71" cy="34" r="2" fill="white" fill-opacity="0.7"/>
<path d="M69 28C69 28 68.9788 30.3182 69.9443 31.0557C70.9097 31.7933 73 31.0557 73 31.0557C73 31.0557 70.1591 31.7509 70.5279 32.9443C70.8966 34.1376 71.1034 34.8067 71.4721 36C71.4721 36 70.1933 34.1115 69 34.1115C67.8067 34.1115 66.5279 36 66.5279 36C66.5279 36 67.8409 34.1376 67.4721 32.9443C67.1034 31.7509 65 31.0557 65 31.0557C65 31.0557 67.0903 31.7933 68.0557 31.0557C69.0212 30.3182 69 28 69 28Z" fill="white"/>
</g>
<defs>
<filter id="filter0_d" x="-2" y="0" width="97" height="127" filterUnits="userSpaceOnUse" color-interpolation-filters="sRGB">
<feFlood flood-opacity="0" result="BackgroundImageFix"/>
<feColorMatrix in="SourceAlpha" type="matrix" values="0 0 0 0 0 0 0 0 0 0 0 0 0 0 0 0 0 0 127 0"/>
<feOffset dy="4"/>
<feGaussianBlur stdDeviation="2"/>
<feColorMatrix type="matrix" values="0 0 0 0 0 0 0 0 0 0 0 0 0 0 0 0 0 0 0.25 0"/>
<feBlend mode="normal" in2="BackgroundImageFix" result="effect1_dropShadow"/>
<feBlend mode="normal" in="SourceGraphic" in2="effect1_dropShadow" result="shape"/>
</filter>
<filter id="filter1_i" x="4.8" y="25.168" width="82.72" height="76.792" filterUnits="userSpaceOnUse" color-interpolation-filters="sRGB">
<feFlood flood-opacity="0" result="BackgroundImageFix"/>
<feBlend mode="normal" in="SourceGraphic" in2="BackgroundImageFix" result="shape"/>
<feColorMatrix in="SourceAlpha" type="matrix" values="0 0 0 0 0 0 0 0 0 0 0 0 0 0 0 0 0 0 127 0" result="hardAlpha"/>
<feOffset dy="6"/>
<feGaussianBlur stdDeviation="1.5"/>
<feComposite in2="hardAlpha" operator="arithmetic" k2="-1" k3="1"/>
<feColorMatrix type="matrix" values="0 0 0 0 1 0 0 0 0 0.247059 0 0 0 0 0.690196 0 0 0 1 0"/>
<feBlend mode="normal" in2="shape" result="effect1_innerShadow"/>
</filter>
<filter id="filter2_f" x="65" y="68" width="17" height="29" filterUnits="userSpaceOnUse" color-interpolation-filters="sRGB">
<feFlood flood-opacity="0" result="BackgroundImageFix"/>
<feBlend mode="normal" in="SourceGraphic" in2="BackgroundImageFix" result="shape"/>
<feGaussianBlur stdDeviation="0.5" result="effect1_foregroundBlur"/>
</filter>
<filter id="filter3_f" x="37.6206" y="59.3249" width="11.6308" height="13.7872" filterUnits="userSpaceOnUse" color-interpolation-filters="sRGB">
<feFlood flood-opacity="0" result="BackgroundImageFix"/>
<feBlend mode="normal" in="SourceGraphic" in2="BackgroundImageFix" result="shape"/>
<feGaussianBlur stdDeviation="0.5" result="effect1_foregroundBlur"/>
</filter>
<linearGradient id="paint0_linear" x1="46.5" y1="0" x2="46.5" y2="119" gradientUnits="userSpaceOnUse">
<stop stop-color="#EC008C"/>
<stop offset="0.458333" stop-color="#D1037E"/>
<stop offset="1" stop-color="#EC008C"/>
</linearGradient>
</defs>
</svg>
