<svg xmlns="http://www.w3.org/2000/svg" width="92" height="119" fill="none"  xmlns:v="https://vecta.io/nano"><style><![CDATA[.B{fill:#fff}.C{fill-opacity:.4}.D{color-interpolation-filters:sRGB}.E{flood-opacity:0}]]></style><g filter="url(#A)"><g filter="url(#B)"><path d="M25.04 58.848c-4.224 0-7.68-.704-10.368-2.112-2.688-1.472-4.672-3.392-5.952-5.76S6.8 45.952 6.8 43.008s.64-5.6 1.92-7.968 3.264-4.256 5.952-5.664c2.688-1.472 6.144-2.208 10.368-2.208 4.16 0 7.584.736 10.272 2.208 2.688 1.408 4.672 3.296 5.952 5.664 1.344 2.368 2.016 5.024 2.016 7.968s-.672 5.6-2.016 7.968c-1.28 2.368-3.264 4.288-5.952 5.76-2.688 1.408-6.112 2.112-10.272 2.112zM12.56 96v-5.76l32.544-34.272 17.76-27.84H80.72v5.76L50.192 65.472 30.416 96H12.56zm12.48-47.712c1.536 0 2.656-.288 3.36-.864.768-.64 1.248-1.376 1.44-2.208.256-.832.384-1.568.384-2.208s-.128-1.376-.384-2.208c-.192-.832-.672-1.536-1.44-2.112-.704-.64-1.824-.96-3.36-.96s-2.688.32-3.456.96a4.33 4.33 0 0 0-1.44 2.112c-.192.832-.288 1.568-.288 2.208s.096 1.376.288 2.208c.256.832.736 1.568 1.44 2.208.768.576 1.92.864 3.456.864zM67.28 96.96c-4.224 0-7.68-.704-10.368-2.112-2.688-1.472-4.672-3.392-5.952-5.76-1.28-2.432-1.92-5.088-1.92-7.968 0-2.944.64-5.6 1.92-7.968s3.264-4.256 5.952-5.664c2.688-1.472 6.144-2.208 10.368-2.208 4.16 0 7.584.736 10.272 2.208 2.688 1.408 4.672 3.296 5.952 5.664 1.344 2.368 2.016 5.024 2.016 7.968 0 2.88-.672 5.536-2.016 7.968-1.28 2.368-3.264 4.288-5.952 5.76-2.688 1.408-6.112 2.112-10.272 2.112zm0-10.56c1.536 0 2.656-.288 3.36-.864.768-.64 1.248-1.376 1.44-2.208.256-.832.384-1.568.384-2.208s-.128-1.376-.384-2.208c-.192-.832-.672-1.536-1.44-2.112-.704-.64-1.824-.96-3.36-.96s-2.688.32-3.456.96a4.33 4.33 0 0 0-1.44 2.112c-.192.832-.288 1.568-.288 2.208s.096 1.376.288 2.208c.256.832.736 1.568 1.44 2.208.768.576 1.92.864 3.456.864z" fill="url(#E)"/></g><path d="M14.672 56.736l-.961 1.754.016.009.016.009.928-1.772zm-5.952-5.76l-1.759.951 1.759-.951zm0-15.936l-1.759-.951 1.759.951zm5.952-5.664l.928 1.772.016-.009.016-.009-.961-1.754zm20.64 0l-.961 1.754.016.009.016.009.928-1.772zm5.952 5.664l-1.759.951.01.018.01.018 1.739-.987zm0 15.936l-1.739-.987-.01.018-.01.018 1.759.951zm-5.952 5.76l.928 1.772.016-.009.016-.009-.961-1.754zM12.56 96h-2v2h2v-2zm0-5.76l-1.45-1.377-.55.579v.798h2zm32.544-34.272l1.45 1.377.132-.139.103-.162-1.686-1.076zm17.76-27.84v-2h-1.096l-.59.924 1.686 1.076zm17.856 0h2v-2h-2v2zm0 5.76l1.438 1.39.562-.581v-.809h-2zM50.192 65.472l-1.438-1.39-.135.14-.106.163 1.679 1.087zM30.416 96v2h1.087l.591-.913L30.416 96zM28.4 47.424l1.267 1.548.007-.006.007-.006-1.28-1.536zm1.44-2.208l-1.912-.588-.021.069-.016.07 1.949.45zm0-4.416l-1.949.45.016.07.021.069 1.912-.588zm-1.44-2.112l-1.345 1.48.07.063.075.057 1.2-1.6zm-6.816 0l1.267 1.548.007-.006.007-.006-1.28-1.536zm-1.44 2.112l-1.912-.588-.021.069-.016.07 1.949.45zm0 4.416l-1.949.45.016.07.021.069 1.912-.588zm1.44 2.208l-1.345 1.48.07.063.076.057 1.2-1.6zm35.328 47.424l-.961 1.754.016.009.016.009.928-1.772zm-5.952-5.76l-1.77.931.005.01.005.01 1.759-.951zm0-15.936l1.759.951-1.759-.951zm5.952-5.664l.928 1.772.016-.009.016-.009-.961-1.754zm20.64 0l-.961 1.754.016.009.016.009.928-1.772zm5.952 5.664l-1.759.951.01.018.01.018 1.739-.987zm0 15.936l-1.751-.967-.005.008-.004.008 1.759.951zm-5.952 5.76l.928 1.772.016-.009.016-.009-.961-1.754zm-6.912-9.312l1.266 1.548.007-.006.007-.006-1.28-1.536zm1.44-2.208l-1.912-.588-.021.069-.016.07 1.949.45zm0-4.416l-1.949.45.016.07.021.069 1.912-.588zM70.64 76.8l-1.345 1.48.07.064.075.057 1.2-1.6zm-6.816 0l1.267 1.548.007-.006.007-.006-1.28-1.536zm-1.44 2.112l-1.912-.588-.021.069-.016.07 1.949.45zm0 4.416l-1.949.45.016.07.021.069 1.912-.588zm1.44 2.208l-1.345 1.48.07.064.076.057 1.2-1.6zM25.04 56.848c-4.02 0-7.128-.673-9.44-1.884l-1.856 3.543c3.064 1.605 6.869 2.34 11.296 2.34v-4zm-9.407-1.866c-2.398-1.313-4.081-2.973-5.153-4.957l-3.519 1.902c1.488 2.752 3.773 4.932 6.751 6.563l1.921-3.508zm-5.153-4.957C9.372 47.976 8.8 45.652 8.8 43.008h-4c0 3.244.708 6.232 2.161 8.919l3.519-1.902zM8.8 43.008c0-2.644.572-4.968 1.679-7.017l-3.519-1.902C5.508 36.776 4.8 39.764 4.8 43.008h4zm1.679-7.017c1.067-1.974 2.739-3.596 5.121-4.843l-1.856-3.543c-2.994 1.568-5.291 3.723-6.783 6.485l3.519 1.902zm5.153-4.861c2.303-1.261 5.398-1.962 9.407-1.962v-4c-4.439 0-8.256.771-11.329 2.454l1.921 3.508zm9.407-1.962c3.939 0 7.004.699 9.311 1.962l1.921-3.508c-3.069-1.681-6.852-2.454-11.233-2.454v4zm9.344 1.98c2.382 1.248 4.053 2.869 5.121 4.843l3.519-1.902c-1.493-2.762-3.789-4.916-6.783-6.485l-1.856 3.543zm5.141 4.88c1.16 2.043 1.755 4.354 1.755 6.981h4c0-3.261-.748-6.262-2.277-8.955l-3.479 1.974zm1.755 6.981c0 2.627-.596 4.938-1.755 6.981l3.479 1.974c1.529-2.693 2.277-5.694 2.277-8.955h-4zm-1.775 7.017c-1.072 1.984-2.755 3.644-5.153 4.957l1.921 3.508c2.978-1.631 5.263-3.811 6.751-6.563l-3.519-1.902zm-5.121 4.939c-2.315 1.213-5.393 1.884-9.344 1.884v4c4.369 0 8.139-.737 11.2-2.34l-1.856-3.543zM14.56 96v-5.76h-4V96h4zm-.55-4.383l32.544-34.272-2.901-2.754L11.11 88.863l2.901 2.754zm32.78-34.574l17.76-27.84-3.372-2.151-17.76 27.84 3.372 2.151zm16.074-26.916H80.72v-4H62.864v4zm15.856-2v5.76h4v-5.76h-4zm.562 4.37L48.754 64.082l2.876 2.78 30.528-31.584-2.876-2.78zM48.513 64.385L28.737 94.913l3.357 2.175 19.776-30.528-3.357-2.175zM30.416 94H12.56v4h17.856v-4zM25.04 50.288c1.707 0 3.391-.305 4.627-1.316l-2.533-3.096c-.173.141-.728.412-2.094.412v4zm4.64-1.328c1.044-.87 1.802-1.968 2.108-3.295l-3.898-.899c-.078.337-.28.711-.772 1.121l2.561 3.073zm2.071-3.156c.295-.959.472-1.9.472-2.796h-4c0 .383-.079.915-.296 1.62l3.823 1.176zm.472-2.796c0-.897-.177-1.837-.472-2.796l-3.823 1.176c.217.705.296 1.236.296 1.62h4zm-.435-2.658c-.311-1.349-1.093-2.441-2.189-3.262l-2.4 3.2c.441.33.619.647.691.962l3.898-.899zm-2.043-3.142c-1.241-1.128-2.961-1.48-4.705-1.48v4c1.328 0 1.848.288 2.015.44l2.691-2.96zm-4.705-1.48c-1.764 0-3.46.36-4.736 1.424l2.561 3.073c.26-.217.868-.496 2.176-.496v-4zm-4.722 1.412a6.33 6.33 0 0 0-2.085 3.072l3.823 1.176c.135-.438.381-.814.795-1.152l-2.533-3.096zm-2.122 3.21c-.215.934-.339 1.826-.339 2.658h4c0-.448.068-1.028.237-1.758l-3.898-.899zm-.339 2.658c0 .832.124 1.724.339 2.658l3.898-.899c-.169-.73-.237-1.31-.237-1.758h-4zm.376 2.796c.371 1.206 1.063 2.242 2.006 3.1l2.691-2.96c-.464-.422-.733-.858-.874-1.316l-3.823 1.176zm2.152 3.22c1.267.95 2.928 1.264 4.656 1.264v-4c-1.344 0-1.987-.262-2.256-.464l-2.4 3.2zM67.28 94.96c-4.02 0-7.128-.673-9.44-1.884l-1.856 3.543c3.064 1.605 6.868 2.34 11.296 2.34v-4zm-9.407-1.866c-2.398-1.313-4.081-2.973-5.153-4.957l-3.519 1.902c1.488 2.752 3.773 4.932 6.751 6.563l1.921-3.508zm-5.143-4.937c-1.121-2.131-1.69-4.465-1.69-7.036h-4c0 3.188.712 6.166 2.15 8.899l3.54-1.863zm-1.69-7.036c0-2.644.572-4.968 1.679-7.017l-3.519-1.902c-1.452 2.687-2.161 5.675-2.161 8.919h4zm1.679-7.017c1.067-1.974 2.739-3.596 5.121-4.843l-1.856-3.543c-2.994 1.568-5.291 3.723-6.783 6.485l3.519 1.902zm5.153-4.861c2.303-1.261 5.398-1.962 9.407-1.962v-4c-4.439 0-8.256.771-11.329 2.454l1.921 3.508zm9.407-1.962c3.939 0 7.004.699 9.311 1.962l1.921-3.508c-3.069-1.681-6.852-2.454-11.233-2.454v4zm9.344 1.98c2.382 1.248 4.053 2.869 5.121 4.843l3.519-1.902c-1.493-2.762-3.789-4.916-6.783-6.485l-1.856 3.543zm5.141 4.88c1.159 2.043 1.755 4.354 1.755 6.981h4c0-3.261-.748-6.262-2.277-8.955l-3.479 1.974zm1.755 6.981c0 2.554-.592 4.876-1.766 7.001l3.501 1.935c1.514-2.739 2.266-5.73 2.266-8.935h-4zm-1.775 7.017c-1.072 1.984-2.755 3.644-5.153 4.957l1.921 3.508c2.978-1.631 5.263-3.811 6.751-6.563l-3.519-1.902zm-5.121 4.939c-2.315 1.213-5.393 1.884-9.344 1.884v4c4.369 0 8.139-.737 11.2-2.34l-1.856-3.543zM67.28 88.4c1.707 0 3.391-.305 4.626-1.316l-2.533-3.096c-.173.141-.728.412-2.094.412v4zm4.64-1.328c1.044-.87 1.802-1.968 2.108-3.295l-3.898-.899c-.078.337-.28.711-.772 1.121l2.561 3.073zm2.071-3.156c.295-.959.472-1.9.472-2.796h-4c0 .383-.079.915-.296 1.62l3.823 1.176zm.472-2.796c0-.897-.177-1.837-.472-2.796L70.168 79.5c.217.705.296 1.236.296 1.62h4zm-.435-2.658c-.311-1.349-1.093-2.441-2.189-3.262l-2.4 3.2c.441.33.619.647.691.962l3.898-.899zm-2.043-3.142c-1.241-1.128-2.961-1.48-4.705-1.48v4c1.328 0 1.848.288 2.015.44l2.691-2.96zm-4.705-1.48c-1.764 0-3.46.36-4.736 1.424l2.561 3.073c.26-.216.868-.496 2.176-.496v-4zm-4.723 1.412a6.33 6.33 0 0 0-2.085 3.072l3.823 1.176c.135-.438.381-.814.795-1.152l-2.533-3.096zm-2.122 3.21c-.215.934-.339 1.826-.339 2.658h4c0-.448.068-1.028.237-1.758l-3.898-.899zm-.339 2.658c0 .832.124 1.724.339 2.658l3.898-.899c-.169-.73-.237-1.31-.237-1.758h-4zm.376 2.796c.371 1.206 1.063 2.242 2.006 3.1l2.691-2.96c-.464-.422-.733-.858-.874-1.316l-3.823 1.176zm2.152 3.22c1.267.95 2.928 1.264 4.656 1.264v-4c-1.344 0-1.987-.262-2.256-.464l-2.4 3.2z" fill="#cd0256"/><path d="M12 40s-.005.58.236.764.764 0 .764 0-.71.174-.618.472l.236.764s-.32-.472-.618-.472-.618.472-.618.472.328-.466.236-.764-.618-.472-.618-.472.523.184.764 0S12 40 12 40z" class="B"/><path d="M16.5 36s-.008.869.354 1.146 1.146 0 1.146 0-1.065.261-.927.708L17.427 39s-.48-.708-.927-.708-.927.708-.927.708.492-.698.354-1.146-.927-.708-.927-.708.784.277 1.146 0S16.5 36 16.5 36z" class="B"/><path d="M12.5 32s-.013 2.028.59 2.674 1.91 0 1.91 0-1.776.608-1.545 1.652l.59 2.674s-.799-1.653-1.545-1.653S10.955 39 10.955 39s.821-1.63.59-2.674S10 34.674 10 34.674s1.306.645 1.91 0S12.5 32 12.5 32z" class="B"/><path d="M21.5 92s-.008.869.354 1.146 1.146 0 1.146 0-1.065.261-.927.708L22.427 95s-.48-.708-.927-.708-.927.708-.927.708.492-.698.354-1.146-.927-.708-.927-.708.784.277 1.146 0S21.5 92 21.5 92z" class="B"/><path d="M17.5 88s-.013 2.028.59 2.674 1.91 0 1.91 0-1.776.608-1.545 1.652l.59 2.674s-.799-1.653-1.545-1.653S15.955 95 15.955 95s.821-1.63.59-2.674S15 90.674 15 90.674s1.306.645 1.91 0S17.5 88 17.5 88z" class="B"/><g filter="url(#C)" class="B"><path d="M68.141 95.997c7.102 0 12.859-5.56 12.859-12.418S80.879 69 73.778 69s4.265 7.482 2.359 16.668c-2.466 10.808-15.097 10.329-7.995 10.329z" fill-opacity=".46"/></g><path d="M69.141 94.997C76.243 94.997 82 89.52 82 82.764S81.324 70 74.222 70s4.82 5.774 2.914 14.822c-2.466 10.646-15.097 10.174-7.995 10.174z" class="B C"/><path d="M77.816 89C80.367 89 81 83.296 81 79.866S80.367 73 77.816 73s1.754 3.479 1.069 8.074c1.892 2.409 0 5.719-1.07 7.926z" class="B"/><path d="M38.649 50.823c4.518-5.479 3.954-13.405-1.258-17.703s-10.279-7.598-14.796-2.119 7.522-.046 13.29 7.181c6.646 8.675-1.753 18.121 2.764 12.641z" class="B C"/><path d="M30.421 81.671c3.23 3.23 14.09-14.482 18.867-19.259S64.81 49.56 61.58 46.33s-8.695 9.794-15.96 15.325c-15.362 15.354-.789 5.926-15.2 20.016z" class="B C"/><g filter="url(#D)" class="B"><path d="M38.621 71.865c1.53 1.53 4.309-4.495 5.781-5.966s5.004-3.738 3.474-5.269-2.588 3.108-4.97 4.669c-4.734 4.73.182 2.251-4.284 6.566z"/></g><path d="M39.54 40.315c1.623-1.968-2.376-6.085-5.022-8.267s-5.7-3.879-7.323-1.911 3.8.86 6.91 4.311c3.063.072 4.413 3.638 5.436 5.868z" class="B"/><path d="M61.761 72.073c.924 2.14-.175 4.674-2.457 5.659s-4.88.05-5.805-2.09 2.369.403 4.651-.582 2.687-5.127 3.611-2.987z" fill-opacity=".1" class="B"/><ellipse cx="56.539" cy="75.114" rx="3" ry="2.5" transform="rotate(336.634 56.539 75.114)" fill-opacity=".2" class="B"/><path d="M60.936 72.685c.879 2.035-1.102.476-3.13 1.352s-3.335 3.856-4.214 1.821.052-4.396 2.08-5.272 4.385.064 5.264 2.099z" fill-opacity=".3" class="B"/><circle cx="56.341" cy="74.655" r="2" transform="rotate(336.634 56.341 74.655)" class="B C"/><ellipse cx="70.5" cy="34" rx="2.5" ry="2" fill-opacity=".6" class="B"/><circle cx="71" cy="34" r="2" fill-opacity=".7" class="B"/><path d="M69 28s-.021 2.318.944 3.056 3.056 0 3.056 0-2.841.695-2.472 1.889L71.472 36S70.193 34.112 69 34.112 66.528 36 66.528 36s1.313-1.862.944-3.056S65 31.056 65 31.056s2.09.738 3.056 0S69 28 69 28z" class="B"/></g><defs><filter id="A" x="-2" y="0" width="97" height="127" filterUnits="userSpaceOnUse" class="D"><feFlood result="A" class="E"/><feColorMatrix in="SourceAlpha" values="0 0 0 0 0 0 0 0 0 0 0 0 0 0 0 0 0 0 127 0"/><feOffset dy="4"/><feGaussianBlur stdDeviation="2"/><feColorMatrix values="0 0 0 0 0 0 0 0 0 0 0 0 0 0 0 0 0 0 0.25 0"/><feBlend in2="A"/><feBlend in="SourceGraphic"/></filter><filter id="B" x="4.8" y="25.168" width="82.72" height="76.792" filterUnits="userSpaceOnUse" class="D"><feFlood class="E"/><feBlend in="SourceGraphic" result="B"/><feColorMatrix in="SourceAlpha" values="0 0 0 0 0 0 0 0 0 0 0 0 0 0 0 0 0 0 127 0" result="C"/><feOffset dy="6"/><feGaussianBlur stdDeviation="1.5"/><feComposite in2="C" operator="arithmetic" k2="-1" k3="1"/><feColorMatrix values="0 0 0 0 1 0 0 0 0 0.247059 0 0 0 0 0.690196 0 0 0 1 0"/><feBlend in2="B"/></filter><filter id="C" x="65" y="68" width="17" height="29" filterUnits="userSpaceOnUse" class="D"><feFlood class="E"/><feBlend in="SourceGraphic"/><feGaussianBlur stdDeviation=".5"/></filter><filter id="D" x="37.621" y="59.325" width="11.631" height="13.787" filterUnits="userSpaceOnUse" class="D"><feFlood class="E"/><feBlend in="SourceGraphic"/><feGaussianBlur stdDeviation=".5"/></filter><linearGradient id="E" x1="46.5" y1="0" x2="46.5" y2="119" gradientUnits="userSpaceOnUse"><stop stop-color="#ec008c"/><stop offset=".458" stop-color="#d1037e"/><stop offset="1" stop-color="#ec008c"/></linearGradient></defs></svg>