<svg height="7.438rem" viewBox="0 0 89 119" fill="none" xmlns="http://www.w3.org/2000/svg">
<g filter="url(#filter0_i)">
<path d="M23.04 58.848C18.816 58.848 15.36 58.144 12.672 56.736C9.984 55.264 8 53.344 6.72 50.976C5.44 48.608 4.8 45.952 4.8 43.008C4.8 40.064 5.44 37.408 6.72 35.04C8 32.672 9.984 30.784 12.672 29.376C15.36 27.904 18.816 27.168 23.04 27.168C27.2 27.168 30.624 27.904 33.312 29.376C36 30.784 37.984 32.672 39.264 35.04C40.608 37.408 41.28 40.064 41.28 43.008C41.28 45.952 40.608 48.608 39.264 50.976C37.984 53.344 36 55.264 33.312 56.736C30.624 58.144 27.2 58.848 23.04 58.848ZM10.56 96V90.24L43.104 55.968L60.864 28.128H78.72V33.888L48.192 65.472L28.416 96H10.56ZM23.04 48.288C24.576 48.288 25.696 48 26.4 47.424C27.168 46.784 27.648 46.048 27.84 45.216C28.096 44.384 28.224 43.648 28.224 43.008C28.224 42.368 28.096 41.632 27.84 40.8C27.648 39.968 27.168 39.264 26.4 38.688C25.696 38.048 24.576 37.728 23.04 37.728C21.504 37.728 20.352 38.048 19.584 38.688C18.88 39.264 18.4 39.968 18.144 40.8C17.952 41.632 17.856 42.368 17.856 43.008C17.856 43.648 17.952 44.384 18.144 45.216C18.4 46.048 18.88 46.784 19.584 47.424C20.352 48 21.504 48.288 23.04 48.288ZM65.28 96.96C61.056 96.96 57.6 96.256 54.912 94.848C52.224 93.376 50.24 91.456 48.96 89.088C47.68 86.656 47.04 84 47.04 81.12C47.04 78.176 47.68 75.52 48.96 73.152C50.24 70.784 52.224 68.896 54.912 67.488C57.6 66.016 61.056 65.28 65.28 65.28C69.44 65.28 72.864 66.016 75.552 67.488C78.24 68.896 80.224 70.784 81.504 73.152C82.848 75.52 83.52 78.176 83.52 81.12C83.52 84 82.848 86.656 81.504 89.088C80.224 91.456 78.24 93.376 75.552 94.848C72.864 96.256 69.44 96.96 65.28 96.96ZM65.28 86.4C66.816 86.4 67.936 86.112 68.64 85.536C69.408 84.896 69.888 84.16 70.08 83.328C70.336 82.496 70.464 81.76 70.464 81.12C70.464 80.48 70.336 79.744 70.08 78.912C69.888 78.08 69.408 77.376 68.64 76.8C67.936 76.16 66.816 75.84 65.28 75.84C63.744 75.84 62.592 76.16 61.824 76.8C61.12 77.376 60.64 78.08 60.384 78.912C60.192 79.744 60.096 80.48 60.096 81.12C60.096 81.76 60.192 82.496 60.384 83.328C60.64 84.16 61.12 84.896 61.824 85.536C62.592 86.112 63.744 86.4 65.28 86.4Z" fill="url(#paint0_linear)"/>
</g>
<path d="M12.672 56.736L11.7114 58.4902L11.7276 58.4991L11.744 58.5077L12.672 56.736ZM6.72 50.976L4.96059 51.927H4.96059L6.72 50.976ZM6.72 35.04L4.96059 34.089L6.72 35.04ZM12.672 29.376L13.6 31.1477L13.6164 31.1391L13.6326 31.1302L12.672 29.376ZM33.312 29.376L32.3514 31.1302L32.3676 31.1391L32.384 31.1477L33.312 29.376ZM39.264 35.04L37.5046 35.991L37.5144 36.0092L37.5246 36.0272L39.264 35.04ZM39.264 50.976L37.5246 49.9888L37.5144 50.0068L37.5046 50.025L39.264 50.976ZM33.312 56.736L34.24 58.5077L34.2564 58.4991L34.2726 58.4902L33.312 56.736ZM10.56 96H8.56V98H10.56V96ZM10.56 90.24L9.1097 88.8628L8.56 89.4417V90.24H10.56ZM43.104 55.968L44.5543 57.3452L44.6867 57.2057L44.7901 57.0436L43.104 55.968ZM60.864 28.128V26.128H59.7676L59.1779 27.0524L60.864 28.128ZM78.72 28.128H80.72V26.128H78.72V28.128ZM78.72 33.888L80.1581 35.278L80.72 34.6966V33.888H78.72ZM48.192 65.472L46.754 64.082L46.619 64.2216L46.5134 64.3846L48.192 65.472ZM28.416 96V98H29.5034L30.0946 97.0874L28.416 96ZM26.4 47.424L27.6665 48.9719L27.6735 48.9662L27.6804 48.9604L26.4 47.424ZM27.84 45.216L25.9284 44.6278L25.9073 44.6964L25.8912 44.7663L27.84 45.216ZM27.84 40.8L25.8912 41.2497L25.9073 41.3196L25.9284 41.3882L27.84 40.8ZM26.4 38.688L25.0547 40.1679L25.1245 40.2314L25.2 40.288L26.4 38.688ZM19.584 38.688L20.8505 40.2359L20.8575 40.2302L20.8644 40.2244L19.584 38.688ZM18.144 40.8L16.2324 40.2118L16.2113 40.2804L16.1952 40.3503L18.144 40.8ZM18.144 45.216L16.1952 45.6657L16.2113 45.7356L16.2324 45.8042L18.144 45.216ZM19.584 47.424L18.2387 48.9039L18.3085 48.9674L18.384 49.024L19.584 47.424ZM54.912 94.848L53.9514 96.6022L53.9676 96.6111L53.984 96.6197L54.912 94.848ZM48.96 89.088L47.1902 90.0195L47.1953 90.0293L47.2006 90.039L48.96 89.088ZM48.96 73.152L50.7194 74.103L48.96 73.152ZM54.912 67.488L55.84 69.2597L55.8564 69.2511L55.8726 69.2422L54.912 67.488ZM75.552 67.488L74.5914 69.2422L74.6076 69.2511L74.624 69.2597L75.552 67.488ZM81.504 73.152L79.7446 74.103L79.7544 74.1212L79.7646 74.1392L81.504 73.152ZM81.504 89.088L79.7535 88.1206L79.749 88.1288L79.7446 88.137L81.504 89.088ZM75.552 94.848L76.48 96.6197L76.4964 96.6111L76.5126 96.6022L75.552 94.848ZM68.64 85.536L69.9065 87.0839L69.9135 87.0782L69.9204 87.0724L68.64 85.536ZM70.08 83.328L68.1684 82.7398L68.1473 82.8084L68.1312 82.8783L70.08 83.328ZM70.08 78.912L68.1312 79.3617L68.1473 79.4316L68.1684 79.5002L70.08 78.912ZM68.64 76.8L67.2947 78.2799L67.3645 78.3434L67.44 78.4L68.64 76.8ZM61.824 76.8L63.0905 78.3479L63.0975 78.3422L63.1044 78.3364L61.824 76.8ZM60.384 78.912L58.4724 78.3238L58.4513 78.3924L58.4352 78.4623L60.384 78.912ZM60.384 83.328L58.4352 83.7777L58.4513 83.8476L58.4724 83.9162L60.384 83.328ZM61.824 85.536L60.4787 87.0159L60.5485 87.0794L60.624 87.136L61.824 85.536ZM23.04 56.848C19.0195 56.848 15.9117 56.1752 13.6 54.9643L11.744 58.5077C14.8083 60.1128 18.6125 60.848 23.04 60.848V56.848ZM13.6326 54.9818C11.2346 53.6686 9.55165 52.0086 8.47941 50.025L4.96059 51.927C6.44835 54.6794 8.73342 56.8594 11.7114 58.4902L13.6326 54.9818ZM8.47941 50.025C7.37179 47.9759 6.8 45.6518 6.8 43.008H2.8C2.8 46.2522 3.50821 49.2401 4.96059 51.927L8.47941 50.025ZM6.8 43.008C6.8 40.3642 7.37179 38.0401 8.47941 35.991L4.96059 34.089C3.50821 36.7759 2.8 39.7638 2.8 43.008H6.8ZM8.47941 35.991C9.54663 34.0167 11.2182 32.3953 13.6 31.1477L11.744 27.6043C8.74983 29.1727 6.45337 31.3273 4.96059 34.089L8.47941 35.991ZM13.6326 31.1302C15.9358 29.869 19.0309 29.168 23.04 29.168V25.168C18.6011 25.168 14.7842 25.939 11.7114 27.6218L13.6326 31.1302ZM23.04 29.168C26.979 29.168 30.0444 29.8668 32.3514 31.1302L34.2726 27.6218C31.2036 25.9412 27.421 25.168 23.04 25.168V29.168ZM32.384 31.1477C34.7658 32.3953 36.4374 34.0167 37.5046 35.991L41.0234 34.089C39.5306 31.3273 37.2342 29.1727 34.24 27.6043L32.384 31.1477ZM37.5246 36.0272C38.6841 38.07 39.28 40.3811 39.28 43.008H43.28C43.28 39.7469 42.532 36.746 41.0034 34.0528L37.5246 36.0272ZM39.28 43.008C39.28 45.6349 38.6841 47.946 37.5246 49.9888L41.0034 51.9632C42.532 49.27 43.28 46.2691 43.28 43.008H39.28ZM37.5046 50.025C36.4324 52.0086 34.7494 53.6686 32.3514 54.9818L34.2726 58.4902C37.2506 56.8594 39.5357 54.6794 41.0234 51.927L37.5046 50.025ZM32.384 54.9643C30.0686 56.1772 26.9907 56.848 23.04 56.848V60.848C27.4094 60.848 31.1794 60.1108 34.24 58.5077L32.384 54.9643ZM12.56 96V90.24H8.56V96H12.56ZM12.0103 91.6172L44.5543 57.3452L41.6537 54.5908L9.1097 88.8628L12.0103 91.6172ZM44.7901 57.0436L62.5501 29.2036L59.1779 27.0524L41.4179 54.8924L44.7901 57.0436ZM60.864 30.128H78.72V26.128H60.864V30.128ZM76.72 28.128V33.888H80.72V28.128H76.72ZM77.282 32.498L46.754 64.082L49.6301 66.862L80.1581 35.278L77.282 32.498ZM46.5134 64.3846L26.7374 94.9126L30.0946 97.0874L49.8706 66.5594L46.5134 64.3846ZM28.416 94H10.56V98H28.416V94ZM23.04 50.288C24.7469 50.288 26.4311 49.9827 27.6665 48.9719L25.1335 45.8761C24.9609 46.0173 24.4051 46.288 23.04 46.288V50.288ZM27.6804 48.9604C28.7244 48.0904 29.4825 46.9929 29.7888 45.6657L25.8912 44.7663C25.8135 45.1031 25.6116 45.4776 25.1196 45.8876L27.6804 48.9604ZM29.7516 45.8042C30.0466 44.8452 30.224 43.9045 30.224 43.008H26.224C26.224 43.3915 26.1454 43.9227 25.9284 44.6278L29.7516 45.8042ZM30.224 43.008C30.224 42.1115 30.0466 41.1707 29.7516 40.2118L25.9284 41.3882C26.1454 42.0932 26.224 42.6245 26.224 43.008H30.224ZM29.7888 40.3503C29.4774 39.0011 28.6955 37.9096 27.6 37.088L25.2 40.288C25.6405 40.6184 25.8186 40.9349 25.8912 41.2497L29.7888 40.3503ZM27.7453 37.2081C26.5042 36.0798 24.7845 35.728 23.04 35.728V39.728C24.3675 39.728 24.8878 40.0162 25.0547 40.1679L27.7453 37.2081ZM23.04 35.728C21.2755 35.728 19.5798 36.0881 18.3036 37.1516L20.8644 40.2244C21.1242 40.0079 21.7325 39.728 23.04 39.728V35.728ZM18.3175 37.1401C17.3232 37.9537 16.6097 38.9859 16.2324 40.2118L20.0556 41.3882C20.1903 40.9501 20.4369 40.5743 20.8505 40.2359L18.3175 37.1401ZM16.1952 40.3503C15.9797 41.2841 15.856 42.176 15.856 43.008H19.856C19.856 42.56 19.9243 41.9799 20.0928 41.2497L16.1952 40.3503ZM15.856 43.008C15.856 43.84 15.9797 44.7319 16.1952 45.6657L20.0928 44.7663C19.9243 44.0361 19.856 43.456 19.856 43.008H15.856ZM16.2324 45.8042C16.6035 47.0102 17.2949 48.0459 18.2387 48.9039L20.9293 45.9441C20.4652 45.5221 20.1965 45.0858 20.0556 44.6278L16.2324 45.8042ZM18.384 49.024C19.6508 49.9741 21.3117 50.288 23.04 50.288V46.288C21.6963 46.288 21.0532 46.0259 20.784 45.824L18.384 49.024ZM65.28 94.96C61.2595 94.96 58.1517 94.2872 55.84 93.0763L53.984 96.6197C57.0483 98.2248 60.8525 98.96 65.28 98.96V94.96ZM55.8726 93.0938C53.4746 91.7806 51.7917 90.1206 50.7194 88.137L47.2006 90.039C48.6884 92.7914 50.9734 94.9714 53.9514 96.6022L55.8726 93.0938ZM50.7298 88.1565C49.6083 86.0256 49.04 83.6915 49.04 81.12H45.04C45.04 84.3085 45.7517 87.2864 47.1902 90.0195L50.7298 88.1565ZM49.04 81.12C49.04 78.4762 49.6118 76.1521 50.7194 74.103L47.2006 72.201C45.7482 74.8879 45.04 77.8758 45.04 81.12H49.04ZM50.7194 74.103C51.7866 72.1287 53.4582 70.5073 55.84 69.2597L53.984 65.7163C50.9898 67.2847 48.6934 69.4393 47.2006 72.201L50.7194 74.103ZM55.8726 69.2422C58.1758 67.981 61.2709 67.28 65.28 67.28V63.28C60.8411 63.28 57.0243 64.051 53.9514 65.7338L55.8726 69.2422ZM65.28 67.28C69.219 67.28 72.2844 67.9788 74.5914 69.2422L76.5126 65.7338C73.4436 64.0532 69.661 63.28 65.28 63.28V67.28ZM74.624 69.2597C77.0058 70.5073 78.6774 72.1287 79.7446 74.103L83.2634 72.201C81.7706 69.4393 79.4742 67.2847 76.48 65.7163L74.624 69.2597ZM79.7646 74.1392C80.9241 76.182 81.52 78.4931 81.52 81.12H85.52C85.52 77.8589 84.772 74.858 83.2434 72.1648L79.7646 74.1392ZM81.52 81.12C81.52 83.6745 80.9278 85.9958 79.7535 88.1206L83.2545 90.0554C84.7682 87.3162 85.52 84.3255 85.52 81.12H81.52ZM79.7446 88.137C78.6724 90.1206 76.9894 91.7806 74.5914 93.0938L76.5126 96.6022C79.4906 94.9714 81.7757 92.7914 83.2634 90.039L79.7446 88.137ZM74.624 93.0763C72.3086 94.2892 69.2307 94.96 65.28 94.96V98.96C69.6494 98.96 73.4194 98.2228 76.48 96.6197L74.624 93.0763ZM65.28 88.4C66.9869 88.4 68.6711 88.0947 69.9065 87.0839L67.3735 83.9881C67.2009 84.1293 66.6451 84.4 65.28 84.4V88.4ZM69.9204 87.0724C70.9644 86.2024 71.7225 85.1049 72.0288 83.7777L68.1312 82.8783C68.0535 83.2151 67.8516 83.5896 67.3596 83.9996L69.9204 87.0724ZM71.9916 83.9162C72.2866 82.9573 72.464 82.0165 72.464 81.12H68.464C68.464 81.5035 68.3854 82.0347 68.1684 82.7398L71.9916 83.9162ZM72.464 81.12C72.464 80.2235 72.2866 79.2827 71.9916 78.3238L68.1684 79.5002C68.3854 80.2053 68.464 80.7365 68.464 81.12H72.464ZM72.0288 78.4623C71.7175 77.1131 70.9355 76.0216 69.84 75.2L67.44 78.4C67.8805 78.7304 68.0586 79.0469 68.1312 79.3617L72.0288 78.4623ZM69.9854 75.3201C68.7442 74.1918 67.0245 73.84 65.28 73.84V77.84C66.6075 77.84 67.1278 78.1282 67.2947 78.2799L69.9854 75.3201ZM65.28 73.84C63.5155 73.84 61.8198 74.2001 60.5436 75.2636L63.1044 78.3364C63.3642 78.1199 63.9725 77.84 65.28 77.84V73.84ZM60.5575 75.2521C59.5632 76.0657 58.8497 77.0979 58.4724 78.3238L62.2956 79.5002C62.4304 79.0621 62.6769 78.6863 63.0905 78.3479L60.5575 75.2521ZM58.4352 78.4623C58.2197 79.3961 58.096 80.288 58.096 81.12H62.096C62.096 80.672 62.1643 80.0919 62.3328 79.3617L58.4352 78.4623ZM58.096 81.12C58.096 81.952 58.2197 82.8439 58.4352 83.7777L62.3328 82.8783C62.1643 82.1481 62.096 81.568 62.096 81.12H58.096ZM58.4724 83.9162C58.8435 85.1222 59.5349 86.1579 60.4787 87.0159L63.1693 84.0561C62.7052 83.6341 62.4365 83.1978 62.2956 82.7398L58.4724 83.9162ZM60.624 87.136C61.8908 88.0861 63.5517 88.4 65.28 88.4V84.4C63.9363 84.4 63.2932 84.1379 63.024 83.936L60.624 87.136Z" fill="#C90232"/>
<path d="M10 40C10 40 9.99471 40.5796 10.2361 40.7639C10.4774 40.9483 11 40.7639 11 40.7639C11 40.7639 10.2898 40.9377 10.382 41.2361C10.4742 41.5344 10.5258 41.7017 10.618 42C10.618 42 10.2983 41.5279 10 41.5279C9.70167 41.5279 9.38197 42 9.38197 42C9.38197 42 9.71022 41.5344 9.61803 41.2361C9.52584 40.9377 9 40.7639 9 40.7639C9 40.7639 9.52257 40.9483 9.76393 40.7639C10.0053 40.5796 10 40 10 40Z" fill="white"/>
<path d="M14.5 36C14.5 36 14.4921 36.8693 14.8541 37.1459C15.2161 37.4225 16 37.1459 16 37.1459C16 37.1459 14.9347 37.4066 15.0729 37.8541C15.2112 38.3016 15.2888 38.5525 15.4271 39C15.4271 39 14.9475 38.2918 14.5 38.2918C14.0525 38.2918 13.5729 39 13.5729 39C13.5729 39 14.0653 38.3016 13.9271 37.8541C13.7888 37.4066 13 37.1459 13 37.1459C13 37.1459 13.7839 37.4225 14.1459 37.1459C14.5079 36.8693 14.5 36 14.5 36Z" fill="white"/>
<path d="M10.5 32C10.5 32 10.4868 34.0284 11.0902 34.6738C11.6936 35.3191 13 34.6738 13 34.6738C13 34.6738 11.2244 35.2821 11.4549 36.3262C11.6854 37.3704 11.8146 37.9558 12.0451 39C12.0451 39 11.2458 37.3475 10.5 37.3475C9.75416 37.3475 8.95492 39 8.95492 39C8.95492 39 9.77556 37.3704 9.54509 36.3262C9.31461 35.2821 8 34.6738 8 34.6738C8 34.6738 9.30644 35.3191 9.90983 34.6738C10.5132 34.0284 10.5 32 10.5 32Z" fill="white"/>
<path d="M19.5 92C19.5 92 19.4921 92.8693 19.8541 93.1459C20.2161 93.4225 21 93.1459 21 93.1459C21 93.1459 19.9347 93.4066 20.0729 93.8541C20.2112 94.3016 20.2888 94.5525 20.4271 95C20.4271 95 19.9475 94.2918 19.5 94.2918C19.0525 94.2918 18.5729 95 18.5729 95C18.5729 95 19.0653 94.3016 18.9271 93.8541C18.7888 93.4066 18 93.1459 18 93.1459C18 93.1459 18.7839 93.4225 19.1459 93.1459C19.5079 92.8693 19.5 92 19.5 92Z" fill="white"/>
<path d="M15.5 88C15.5 88 15.4868 90.0284 16.0902 90.6738C16.6936 91.3191 18 90.6738 18 90.6738C18 90.6738 16.2244 91.2821 16.4549 92.3262C16.6854 93.3704 16.8146 93.9558 17.0451 95C17.0451 95 16.2458 93.3475 15.5 93.3475C14.7542 93.3475 13.9549 95 13.9549 95C13.9549 95 14.7756 93.3704 14.5451 92.3262C14.3146 91.2821 13 90.6738 13 90.6738C13 90.6738 14.3064 91.3191 14.9098 90.6738C15.5132 90.0284 15.5 88 15.5 88Z" fill="white"/>
<g filter="url(#filter1_f)">
<path d="M66.1413 95.9968C73.243 95.9968 79 90.4369 79 83.5784C79 76.7199 78.8794 69 71.7778 69C64.6761 69 76.0424 76.4821 74.1363 85.6677C71.6705 96.4758 59.0396 95.9968 66.1413 95.9968Z" fill="white" fill-opacity="0.46"/>
</g>
<path d="M67.1413 94.9969C74.243 94.9969 80 89.5202 80 82.7644C80 76.0086 79.3239 70 72.2222 70C65.1206 70 77.0424 75.7744 75.1363 84.8224C72.6705 95.4687 60.0396 94.9969 67.1413 94.9969Z" fill="white" fill-opacity="0.4"/>
<path d="M75.8162 89C78.3671 89 79 83.2963 79 79.8659C79 76.4355 78.3671 73 75.8163 73C73.2655 73 77.5703 76.4793 76.8857 81.0736C78.7781 83.4828 76.8859 86.7931 75.8162 89Z" fill="white"/>
<path d="M36.6492 50.8229C41.1668 45.3434 40.6034 37.4175 35.3907 33.1199C30.1781 28.8223 25.1119 25.5217 20.5943 31.0012C16.0767 36.4807 28.116 30.9553 33.8847 38.1818C40.5306 46.8568 32.1316 56.3024 36.6492 50.8229Z" fill="white" fill-opacity="0.4"/>
<path d="M28.4206 81.6705C31.6503 84.9002 42.5106 67.1886 47.2877 62.4116C52.0648 57.6345 62.81 49.56 59.5802 46.3302C56.3505 43.1005 50.8853 56.1238 43.6205 61.6548C28.2587 77.0086 42.8314 67.5813 28.4206 81.6705Z" fill="white" fill-opacity="0.4"/>
<g filter="url(#filter2_f)">
<path d="M36.6205 71.8652C38.1507 73.3954 40.9293 67.3707 42.4012 65.8989C43.873 64.427 47.4049 62.1604 45.8747 60.6302C44.3445 59.1 43.2868 63.7387 40.9048 65.2993C36.1711 70.0292 41.0873 67.5508 36.6205 71.8652Z" fill="white"/>
</g>
<path d="M37.5403 40.3145C39.1629 38.3463 35.1647 34.2296 32.5179 32.0474C29.8711 29.8653 26.8177 28.1681 25.1951 30.1363C23.5724 32.1044 28.9954 30.9962 32.1047 34.447C35.1674 34.5194 36.5179 38.0852 37.5403 40.3145Z" fill="white"/>
<path d="M59.7614 72.0728C60.6859 74.2126 59.5859 76.7463 57.3044 77.732C55.0229 78.7177 52.424 77.782 51.4995 75.6422C50.575 73.5023 53.8685 76.0456 56.15 75.0599C58.4314 74.0743 58.837 69.9329 59.7614 72.0728Z" fill="white" fill-opacity="0.1"/>
<ellipse cx="54.5394" cy="75.114" rx="3" ry="2.5" transform="rotate(-23.3659 54.5394 75.114)" fill="white" fill-opacity="0.2"/>
<path d="M58.9361 72.6854C59.8155 74.7208 57.8342 73.1614 55.8062 74.0376C53.7783 74.9137 52.4715 77.8936 51.5922 75.8582C50.7128 73.8228 51.644 71.4626 53.672 70.5864C55.6999 69.7103 58.0568 70.65 58.9361 72.6854Z" fill="white" fill-opacity="0.3"/>
<circle cx="54.3411" cy="74.6551" r="2" transform="rotate(-23.3659 54.3411 74.6551)" fill="white" fill-opacity="0.4"/>
<ellipse cx="68.5" cy="34" rx="2.5" ry="2" fill="white" fill-opacity="0.6"/>
<circle cx="69" cy="34" r="2" fill="white" fill-opacity="0.7"/>
<path d="M67 28C67 28 66.9788 30.3182 67.9443 31.0557C68.9097 31.7933 71 31.0557 71 31.0557C71 31.0557 68.1591 31.7509 68.5279 32.9443C68.8966 34.1376 69.1034 34.8067 69.4721 36C69.4721 36 68.1933 34.1115 67 34.1115C65.8067 34.1115 64.5279 36 64.5279 36C64.5279 36 65.8409 34.1376 65.4721 32.9443C65.1034 31.7509 63 31.0557 63 31.0557C63 31.0557 65.0903 31.7933 66.0557 31.0557C67.0212 30.3182 67 28 67 28Z" fill="white"/>
<defs>
<filter id="filter0_i" x="2.80005" y="25.168" width="82.72" height="76.792" filterUnits="userSpaceOnUse" color-interpolation-filters="sRGB">
<feFlood flood-opacity="0" result="BackgroundImageFix"/>
<feBlend mode="normal" in="SourceGraphic" in2="BackgroundImageFix" result="shape"/>
<feColorMatrix in="SourceAlpha" type="matrix" values="0 0 0 0 0 0 0 0 0 0 0 0 0 0 0 0 0 0 127 0" result="hardAlpha"/>
<feOffset dy="6"/>
<feGaussianBlur stdDeviation="1.5"/>
<feComposite in2="hardAlpha" operator="arithmetic" k2="-1" k3="1"/>
<feColorMatrix type="matrix" values="0 0 0 0 1 0 0 0 0 0.449333 0 0 0 0 0.416667 0 0 0 1 0"/>
<feBlend mode="normal" in2="shape" result="effect1_innerShadow"/>
</filter>
<filter id="filter1_f" x="63" y="68" width="17" height="29" filterUnits="userSpaceOnUse" color-interpolation-filters="sRGB">
<feFlood flood-opacity="0" result="BackgroundImageFix"/>
<feBlend mode="normal" in="SourceGraphic" in2="BackgroundImageFix" result="shape"/>
<feGaussianBlur stdDeviation="0.5" result="effect1_foregroundBlur"/>
</filter>
<filter id="filter2_f" x="35.6205" y="59.3249" width="11.6308" height="13.7872" filterUnits="userSpaceOnUse" color-interpolation-filters="sRGB">
<feFlood flood-opacity="0" result="BackgroundImageFix"/>
<feBlend mode="normal" in="SourceGraphic" in2="BackgroundImageFix" result="shape"/>
<feGaussianBlur stdDeviation="0.5" result="effect1_foregroundBlur"/>
</filter>
<linearGradient id="paint0_linear" x1="44.5" y1="0" x2="44.5" y2="119" gradientUnits="userSpaceOnUse">
<stop stop-color="#E5033A"/>
<stop offset="0.458333" stop-color="#F13333"/>
<stop offset="1" stop-color="#E5033A"/>
</linearGradient>
</defs>
</svg>
