<svg width="399" height="128" viewBox="0 0 399 128" fill="none" xmlns="http://www.w3.org/2000/svg">
<g filter="url(#filter0_di)">
<path d="M30.492 14H42.252C42.692 14 43.072 14.16 43.392 14.48C43.712 14.8 43.872 15.18 43.872 15.62V54.38C43.872 54.82 43.712 55.2 43.392 55.52C43.072 55.84 42.692 56 42.252 56H30.492C30.052 56 29.672 55.84 29.352 55.52C29.032 55.2 28.872 54.82 28.872 54.38V41.42H19.152V54.38C19.152 54.82 18.992 55.2 18.672 55.52C18.352 55.84 17.972 56 17.532 56H5.77195C5.33195 56 4.95195 55.86 4.63195 55.58C4.31195 55.26 4.15195 54.86 4.15195 54.38V15.62C4.15195 15.18 4.31195 14.8 4.63195 14.48C4.95195 14.16 5.33195 14 5.77195 14H17.532C17.972 14 18.352 14.16 18.672 14.48C18.992 14.8 19.152 15.18 19.152 15.62V28.22H28.872V15.62C28.872 15.18 29.032 14.8 29.352 14.48C29.672 14.16 30.052 14 30.492 14ZM64.8115 14H77.8315C79.2715 14 80.1715 14.66 80.5315 15.98L93.9115 54.26C93.9515 54.38 93.9715 54.58 93.9715 54.86C93.9715 55.1 93.8315 55.36 93.5515 55.64C93.3115 55.88 93.0115 56 92.6515 56H81.5515C80.3515 56 79.5715 55.5 79.2115 54.5L77.7715 50.54H64.8715L63.4315 54.5C63.0715 55.5 62.2915 56 61.0915 56H49.9915C49.6315 56 49.3115 55.88 49.0315 55.64C48.7915 55.36 48.6715 55.1 48.6715 54.86C48.6715 54.58 48.6915 54.38 48.7315 54.26L62.1115 15.98C62.4715 14.66 63.3715 14 64.8115 14ZM67.9315 38.84H74.7115L71.2915 27.68L67.9315 38.84ZM117.803 14H154.283C154.723 14 155.103 14.16 155.423 14.48C155.743 14.8 155.903 15.18 155.903 15.62V54.38C155.903 54.82 155.743 55.2 155.423 55.52C155.103 55.84 154.723 56 154.283 56H142.523C142.083 56 141.703 55.84 141.383 55.52C141.063 55.2 140.903 54.82 140.903 54.38V27.2H131.183V54.38C131.183 54.82 131.023 55.2 130.703 55.52C130.383 55.84 130.003 56 129.563 56H117.803C117.363 56 116.983 55.86 116.663 55.58C116.343 55.26 116.183 54.86 116.183 54.38V15.62C116.183 15.18 116.343 14.8 116.663 14.48C116.983 14.16 117.363 14 117.803 14ZM178.103 44.3H196.583C197.023 44.3 197.403 44.46 197.723 44.78C198.043 45.1 198.203 45.48 198.203 45.92V54.38C198.203 54.82 198.043 55.2 197.723 55.52C197.403 55.84 197.023 56 196.583 56H165.323C164.883 56 164.503 55.84 164.183 55.52C163.863 55.2 163.703 54.82 163.703 54.38V15.62C163.703 15.18 163.863 14.8 164.183 14.48C164.503 14.16 164.883 14 165.323 14H196.103C196.543 14 196.923 14.16 197.243 14.48C197.563 14.8 197.723 15.18 197.723 15.62V24.08C197.723 24.52 197.563 24.9 197.243 25.22C196.923 25.54 196.543 25.7 196.103 25.7H178.103V29.48H194.783C195.223 29.48 195.603 29.64 195.923 29.96C196.243 30.28 196.403 30.66 196.403 31.1V38.9C196.403 39.34 196.243 39.72 195.923 40.04C195.603 40.36 195.223 40.52 194.783 40.52H178.103V44.3ZM207.041 14H224.921C230.681 14 235.181 15.24 238.421 17.72C241.661 20.2 243.281 23.86 243.281 28.7C243.281 33.54 241.661 37.12 238.421 39.44C235.221 41.76 230.721 42.92 224.921 42.92H221.021V54.38C221.021 54.82 220.861 55.2 220.541 55.52C220.221 55.84 219.841 56 219.401 56H207.041C206.601 56 206.221 55.84 205.901 55.52C205.581 55.2 205.421 54.82 205.421 54.38V15.62C205.421 15.18 205.581 14.8 205.901 14.48C206.221 14.16 206.601 14 207.041 14ZM220.721 25.16V31.82H224.921C225.641 31.82 226.281 31.56 226.841 31.04C227.401 30.48 227.681 29.7 227.681 28.7C227.681 27.7 227.461 26.86 227.021 26.18C226.581 25.5 225.881 25.16 224.921 25.16H220.721ZM270.211 29C270.651 28.48 270.871 27.86 270.871 27.14C270.871 26.42 270.651 25.78 270.211 25.22C269.811 24.62 269.211 24.32 268.411 24.32H263.371V29.78H268.411C269.211 29.78 269.811 29.52 270.211 29ZM263.371 39.8V45.68H268.951C269.871 45.68 270.551 45.38 270.991 44.78C271.471 44.14 271.711 43.44 271.711 42.68V42.62C271.711 41.86 271.451 41.2 270.931 40.64C270.451 40.08 269.791 39.8 268.951 39.8H263.371ZM270.511 56H249.991C249.551 56 249.171 55.84 248.851 55.52C248.531 55.2 248.371 54.82 248.371 54.38V15.62C248.371 15.18 248.531 14.8 248.851 14.48C249.171 14.16 249.551 14 249.991 14H269.911C275.591 14 279.771 15.04 282.451 17.12C285.171 19.16 286.531 22.26 286.531 26.42V26.6C286.531 28.32 286.031 29.86 285.031 31.22C284.031 32.54 282.931 33.5 281.731 34.1C283.331 34.74 284.671 35.88 285.751 37.52C286.871 39.12 287.431 40.88 287.431 42.8C287.431 51.6 281.791 56 270.511 56ZM313.222 56H295.342C294.902 56 294.522 55.84 294.202 55.52C293.882 55.2 293.722 54.82 293.722 54.38V15.62C293.722 15.18 293.882 14.8 294.202 14.48C294.522 14.16 294.902 14 295.342 14H307.702C308.142 14 308.522 14.16 308.842 14.48C309.162 14.8 309.322 15.18 309.322 15.62V27.08H313.222C319.022 27.08 323.522 28.24 326.722 30.56C329.962 32.88 331.582 36.46 331.582 41.3C331.582 46.14 329.962 49.8 326.722 52.28C323.482 54.76 318.982 56 313.222 56ZM309.022 38.18V44.84H313.222C314.182 44.84 314.882 44.5 315.322 43.82C315.762 43.14 315.982 42.3 315.982 41.3C315.982 40.3 315.702 39.54 315.142 39.02C314.582 38.46 313.942 38.18 313.222 38.18H309.022ZM347.662 56H335.422C334.982 56 334.602 55.84 334.282 55.52C333.962 55.2 333.802 54.82 333.802 54.38V15.62C333.802 15.18 333.962 14.8 334.282 14.48C334.602 14.16 334.982 14 335.422 14H347.662C348.102 14 348.482 14.16 348.802 14.48C349.122 14.8 349.282 15.18 349.282 15.62V54.38C349.282 54.82 349.122 55.2 348.802 55.52C348.482 55.84 348.102 56 347.662 56ZM358.682 14H369.542C369.982 14 370.362 14.16 370.682 14.48C371.002 14.8 371.162 15.18 371.162 15.62V32L381.302 15.38C381.822 14.46 382.642 14 383.762 14H393.242C393.682 14 394.062 14.16 394.382 14.48C394.702 14.8 394.862 15.18 394.862 15.62V54.38C394.862 54.82 394.702 55.2 394.382 55.52C394.062 55.84 393.682 56 393.242 56H382.382C381.942 56 381.562 55.84 381.242 55.52C380.922 55.2 380.762 54.82 380.762 54.38V39.32L370.622 54.62C370.022 55.54 369.202 56 368.162 56H358.682C358.242 56 357.862 55.84 357.542 55.52C357.222 55.2 357.062 54.82 357.062 54.38V15.62C357.062 15.18 357.222 14.8 357.542 14.48C357.862 14.16 358.242 14 358.682 14ZM378.242 1.64C378.242 0.879997 378.622 0.499996 379.382 0.499996H385.322C386.082 0.499996 386.462 0.879997 386.462 1.64C386.462 4.48 385.562 6.76 383.762 8.48C381.962 10.16 379.302 11 375.782 11C372.302 11 369.662 10.14 367.862 8.42C366.062 6.7 365.162 4.44 365.162 1.64C365.162 0.879997 365.542 0.499996 366.302 0.499996H372.242C373.002 0.499996 373.382 0.879997 373.382 1.64C373.382 3.84 374.182 4.94 375.782 4.94C377.422 4.94 378.242 3.84 378.242 1.64ZM50.5399 70H83.4199C83.8599 70 84.2399 70.16 84.5599 70.48C84.8799 70.8 85.0399 71.18 85.0399 71.62V98.8H87.6199C88.0599 98.8 88.4399 98.96 88.7599 99.28C89.0799 99.6 89.2399 99.98 89.2399 100.42V117.76C89.2399 118.2 89.0799 118.58 88.7599 118.9C88.4399 119.22 88.0599 119.38 87.6199 119.38H75.8599C75.4199 119.38 75.0399 119.22 74.7199 118.9C74.3999 118.58 74.2399 118.2 74.2399 117.76V112H57.9199V117.76C57.9199 118.2 57.7599 118.58 57.4399 118.9C57.1199 119.22 56.7399 119.38 56.2999 119.38H44.5399C44.0999 119.38 43.7199 119.22 43.3999 118.9C43.0799 118.62 42.9199 118.24 42.9199 117.76V100.42C42.9199 99.98 43.0799 99.6 43.3999 99.28C43.7199 98.96 44.0999 98.8 44.5399 98.8H44.7799C45.9799 98.8 46.9599 98.4 47.7199 97.6C48.5199 96.8 48.9199 95.66 48.9199 94.18V71.62C48.9199 71.18 49.0799 70.8 49.3999 70.48C49.7199 70.16 50.0999 70 50.5399 70ZM70.0399 83.2H63.9199V94.24C63.9199 96.48 63.7399 98 63.3799 98.8H70.0399V83.2ZM110.544 100.3H129.024C129.464 100.3 129.844 100.46 130.164 100.78C130.484 101.1 130.644 101.48 130.644 101.92V110.38C130.644 110.82 130.484 111.2 130.164 111.52C129.844 111.84 129.464 112 129.024 112H97.7641C97.3241 112 96.9441 111.84 96.6241 111.52C96.3041 111.2 96.1441 110.82 96.1441 110.38V71.62C96.1441 71.18 96.3041 70.8 96.6241 70.48C96.9441 70.16 97.3241 70 97.7641 70H128.544C128.984 70 129.364 70.16 129.684 70.48C130.004 70.8 130.164 71.18 130.164 71.62V80.08C130.164 80.52 130.004 80.9 129.684 81.22C129.364 81.54 128.984 81.7 128.544 81.7H110.544V85.48H127.224C127.664 85.48 128.044 85.64 128.364 85.96C128.684 86.28 128.844 86.66 128.844 87.1V94.9C128.844 95.34 128.684 95.72 128.364 96.04C128.044 96.36 127.664 96.52 127.224 96.52H110.544V100.3ZM139.483 70H175.963C176.403 70 176.783 70.16 177.103 70.48C177.423 70.8 177.583 71.18 177.583 71.62V110.38C177.583 110.82 177.423 111.2 177.103 111.52C176.783 111.84 176.403 112 175.963 112H164.203C163.763 112 163.383 111.84 163.063 111.52C162.743 111.2 162.583 110.82 162.583 110.38V83.2H152.863V110.38C152.863 110.82 152.703 111.2 152.383 111.52C152.063 111.84 151.683 112 151.243 112H139.483C139.043 112 138.663 111.86 138.343 111.58C138.023 111.26 137.863 110.86 137.863 110.38V71.62C137.863 71.18 138.023 70.8 138.343 70.48C138.663 70.16 139.043 70 139.483 70ZM189.642 73.84C193.322 70.88 198.182 69.4 204.222 69.4C210.262 69.4 215.102 70.9 218.742 73.9C222.422 76.86 224.262 81.04 224.262 86.44V95.8C224.262 101.28 222.442 105.46 218.802 108.34C215.202 111.18 210.342 112.6 204.222 112.6C198.102 112.6 193.222 111.18 189.582 108.34C185.982 105.46 184.182 101.28 184.182 95.8V86.44C184.182 81 186.002 76.8 189.642 73.84ZM200.982 99.7C201.782 100.5 202.862 100.9 204.222 100.9C205.582 100.9 206.662 100.5 207.462 99.7C208.262 98.9 208.662 97.68 208.662 96.04V85.96C208.662 84.36 208.262 83.16 207.462 82.36C206.662 81.52 205.582 81.1 204.222 81.1C202.862 81.1 201.782 81.52 200.982 82.36C200.182 83.16 199.782 84.36 199.782 85.96V96.04C199.782 97.68 200.182 98.9 200.982 99.7ZM252.571 83.8C252.571 82 251.291 81.1 248.731 81.1C247.251 81.1 246.331 81.24 245.971 81.52C245.651 81.76 245.251 82.12 244.771 82.6C244.331 83.04 243.751 83.26 243.031 83.26H230.971C230.611 83.26 230.291 83.14 230.011 82.9C229.771 82.62 229.651 82.14 229.651 81.46C229.651 80.78 229.851 79.9 230.251 78.82C230.651 77.74 231.331 76.64 232.291 75.52C233.251 74.36 234.431 73.34 235.831 72.46C237.231 71.58 239.051 70.86 241.291 70.3C243.571 69.7 246.091 69.4 248.851 69.4C254.451 69.4 259.071 70.68 262.711 73.24C266.351 75.76 268.171 78.94 268.171 82.78C268.171 86.58 266.331 89.4 262.651 91.24C266.531 92.88 268.471 95.6 268.471 99.4C268.471 103.16 266.611 106.3 262.891 108.82C259.171 111.34 254.491 112.6 248.851 112.6C245.451 112.6 242.411 112.18 239.731 111.34C237.091 110.5 235.051 109.44 233.611 108.16C230.771 105.56 229.351 102.9 229.351 100.18C229.351 99.82 229.471 99.52 229.711 99.28C229.991 99 230.311 98.86 230.671 98.86H242.731C243.451 98.86 244.171 99.22 244.891 99.94C245.611 100.66 246.891 101.02 248.731 101.02C251.491 101.02 252.871 100.14 252.871 98.38C252.871 97.06 251.471 96.4 248.671 96.4H242.611C242.171 96.4 241.791 96.22 241.471 95.86C241.151 95.5 240.991 95.1 240.991 94.66V87.46C240.991 87.02 241.151 86.62 241.471 86.26C241.791 85.9 242.171 85.72 242.611 85.72H248.671C250.111 85.72 251.111 85.58 251.671 85.3C252.271 85.02 252.571 84.52 252.571 83.8ZM277.002 70H287.862C288.302 70 288.682 70.16 289.002 70.48C289.322 70.8 289.482 71.18 289.482 71.62V88L299.622 71.38C300.142 70.46 300.962 70 302.082 70H311.562C312.002 70 312.382 70.16 312.702 70.48C313.022 70.8 313.182 71.18 313.182 71.62V110.38C313.182 110.82 313.022 111.2 312.702 111.52C312.382 111.84 312.002 112 311.562 112H300.702C300.262 112 299.882 111.84 299.562 111.52C299.242 111.2 299.082 110.82 299.082 110.38V95.32L288.942 110.62C288.342 111.54 287.522 112 286.482 112H277.002C276.562 112 276.182 111.84 275.862 111.52C275.542 111.2 275.382 110.82 275.382 110.38V71.62C275.382 71.18 275.542 70.8 275.862 70.48C276.182 70.16 276.562 70 277.002 70ZM320.488 70H355.648C356.088 70 356.468 70.16 356.788 70.48C357.108 70.8 357.268 71.18 357.268 71.62V81.28C357.268 81.72 357.108 82.1 356.788 82.42C356.468 82.74 356.088 82.9 355.648 82.9H345.688V110.38C345.688 110.82 345.528 111.2 345.208 111.52C344.888 111.84 344.508 112 344.068 112H332.068C331.628 112 331.248 111.84 330.928 111.52C330.608 111.2 330.448 110.82 330.448 110.38V82.9H320.488C320.048 82.9 319.668 82.74 319.348 82.42C319.028 82.1 318.868 81.72 318.868 81.28V71.62C318.868 71.18 319.028 70.8 319.348 70.48C319.668 70.16 320.048 70 320.488 70Z" fill="white"/>
</g>
<defs>
<filter id="filter0_di" x="0.151947" y="0.5" width="398.71" height="126.88" filterUnits="userSpaceOnUse" color-interpolation-filters="sRGB">
<feFlood flood-opacity="0" result="BackgroundImageFix"/>
<feColorMatrix in="SourceAlpha" type="matrix" values="0 0 0 0 0 0 0 0 0 0 0 0 0 0 0 0 0 0 127 0"/>
<feOffset dy="4"/>
<feGaussianBlur stdDeviation="2"/>
<feColorMatrix type="matrix" values="0 0 0 0 0 0 0 0 0 0 0 0 0 0 0 0 0 0 0.25 0"/>
<feBlend mode="normal" in2="BackgroundImageFix" result="effect1_dropShadow"/>
<feBlend mode="normal" in="SourceGraphic" in2="effect1_dropShadow" result="shape"/>
<feColorMatrix in="SourceAlpha" type="matrix" values="0 0 0 0 0 0 0 0 0 0 0 0 0 0 0 0 0 0 127 0" result="hardAlpha"/>
<feOffset dy="2"/>
<feGaussianBlur stdDeviation="0.5"/>
<feComposite in2="hardAlpha" operator="arithmetic" k2="-1" k3="1"/>
<feColorMatrix type="matrix" values="0 0 0 0 0.791667 0 0 0 0 0.791667 0 0 0 0 0.791667 0 0 0 0.53 0"/>
<feBlend mode="normal" in2="shape" result="effect2_innerShadow"/>
</filter>
</defs>
</svg>
